<svg viewBox="0 0 63 54.6426" xmlns="http://www.w3.org/2000/svg" xmlns:xlink="http://www.w3.org/1999/xlink" width="63.000000" height="54.642578" fill="none" customFrame="#000000">
	<g id="组合 340">
		<path id="" d="M1.81858 28.9658L1.78443 29L1.75028 29Q1.43437 29 1.1697 28.9146Q0.905022 28.8292 0.691574 28.6756Q0.486663 28.5133 0.324442 28.3084Q0.170759 28.095 0.0853795 27.8303Q0 27.5656 0 27.2497L0 27.2156L0.0341518 27.1814L1.81858 27.1814L1.81858 28.9658ZM1.68198 28.9658L1.68198 27.1814L3.46641 27.1814L3.50056 27.2156L3.50056 27.2497Q3.50056 27.5656 3.40664 27.8303Q3.32126 28.095 3.15904 28.3084Q3.00536 28.5133 2.79191 28.6756Q2.587 28.8292 2.32232 28.9146Q2.06618 29 1.75028 29L1.71613 29L1.68198 28.9658ZM1.68198 25.5336L1.71613 25.4994L1.75028 25.4994Q2.06618 25.4994 2.32232 25.5934Q2.587 25.6787 2.79191 25.841Q3.00536 25.9946 3.15904 26.2081Q3.32126 26.413 3.40664 26.6777Q3.50056 26.9338 3.50056 27.2497L3.50056 27.2839L3.46641 27.318L1.68198 27.318L1.68198 25.5336ZM1.81858 25.5336L1.81858 27.318L0.0341518 27.318L0 27.2839L0 27.2497Q0 26.9338 0.0853795 26.6777Q0.170759 26.413 0.324442 26.2081Q0.486663 25.9946 0.691574 25.841Q0.905022 25.6787 1.1697 25.5934Q1.43437 25.4994 1.75028 25.4994L1.78443 25.4994L1.81858 25.5336ZM1.81858 11.4801L1.78443 11.5143L1.75028 11.5143Q1.43437 11.5143 1.1697 11.4289Q0.905022 11.3435 0.691574 11.1898Q0.486663 11.0276 0.324442 10.8227Q0.170759 10.6093 0.0853795 10.3446Q0 10.0799 0 9.76401L0 9.72985L0.0341518 9.6957L1.81858 9.6957L1.81858 11.4801ZM1.68198 11.4801L1.68198 9.6957L3.46641 9.6957L3.50056 9.72985L3.50056 9.76401Q3.50056 10.0799 3.40664 10.3446Q3.32126 10.6093 3.15904 10.8227Q3.00536 11.0276 2.79191 11.1898Q2.587 11.3435 2.32232 11.4289Q2.06618 11.5143 1.75028 11.5143L1.71613 11.5143L1.68198 11.4801ZM1.68198 8.04788L1.71613 8.01373L1.75028 8.01373Q2.06618 8.01373 2.32232 8.10765Q2.587 8.19303 2.79191 8.35525Q3.00536 8.50893 3.15904 8.72238Q3.32126 8.92729 3.40664 9.19197Q3.50056 9.4481 3.50056 9.76401L3.50056 9.79816L3.46641 9.83231L1.68198 9.83231L1.68198 8.04788ZM1.81858 8.04788L1.81858 9.83231L0.0341518 9.83231L0 9.79816L0 9.76401Q0 9.4481 0.0853795 9.19197Q0.170759 8.92729 0.324442 8.72238Q0.486663 8.50893 0.691574 8.35525Q0.905022 8.19303 1.1697 8.10765Q1.43437 8.01373 1.75028 8.01373L1.78443 8.01373L1.81858 8.04788ZM5.31914 25.4653L5.28499 25.4994L5.25084 25.4994Q4.93493 25.4994 4.67026 25.4141Q4.40558 25.3287 4.19213 25.175Q3.98722 25.0128 3.825 24.8079Q3.67132 24.5944 3.58594 24.3297Q3.50056 24.0651 3.50056 23.7492L3.50056 23.715L3.53471 23.6809L5.31914 23.6809L5.31914 25.4653ZM5.18253 25.4653L5.18253 23.6809L6.96696 23.6809L7.00112 23.715L7.00112 23.7492Q7.00112 24.0651 6.9072 24.3297Q6.82182 24.5944 6.6596 24.8079Q6.50592 25.0128 6.29247 25.175Q6.08756 25.3287 5.82288 25.4141Q5.56674 25.4994 5.25084 25.4994L5.21669 25.4994L5.18253 25.4653ZM5.18253 22.033L5.21669 21.9989L5.25084 21.9989Q5.56674 21.9989 5.82288 22.0928Q6.08756 22.1782 6.29247 22.3404Q6.50592 22.4941 6.6596 22.7075Q6.82182 22.9124 6.9072 23.1771Q7.00112 23.4333 7.00112 23.7492L7.00112 23.7833L6.96696 23.8175L5.18253 23.8175L5.18253 22.033ZM5.31914 22.033L5.31914 23.8175L3.53471 23.8175L3.50056 23.7833L3.50056 23.7492Q3.50056 23.4333 3.58594 23.1771Q3.67132 22.9124 3.825 22.7075Q3.98722 22.4941 4.19213 22.3404Q4.40558 22.1782 4.67026 22.0928Q4.93493 21.9989 5.25084 21.9989L5.28499 21.9989L5.31914 22.033ZM5.31914 14.9807L5.28499 15.0148L5.25084 15.0148Q4.93493 15.0148 4.67026 14.9295Q4.40558 14.8441 4.19213 14.6904Q3.98722 14.5282 3.825 14.3233Q3.67132 14.1098 3.58594 13.8451Q3.50056 13.5805 3.50056 13.2646L3.50056 13.2304L3.53471 13.1963L5.31914 13.1963L5.31914 14.9807ZM5.18253 14.9807L5.18253 13.1963L6.96696 13.1963L7.00112 13.2304L7.00112 13.2646Q7.00112 13.5805 6.9072 13.8451Q6.82182 14.1098 6.6596 14.3233Q6.50592 14.5282 6.29247 14.6904Q6.08756 14.8441 5.82288 14.9295Q5.56674 15.0148 5.25084 15.0148L5.21669 15.0148L5.18253 14.9807ZM5.18253 11.5484L5.21669 11.5143L5.25084 11.5143Q5.56674 11.5143 5.82288 11.6082Q6.08756 11.6936 6.29247 11.8558Q6.50592 12.0095 6.6596 12.2229Q6.82182 12.4278 6.9072 12.6925Q7.00112 12.9487 7.00112 13.2646L7.00112 13.2987L6.96696 13.3329L5.18253 13.3329L5.18253 11.5484ZM5.31914 11.5484L5.31914 13.3329L3.53471 13.3329L3.50056 13.2987L3.50056 13.2646Q3.50056 12.9487 3.58594 12.6925Q3.67132 12.4278 3.825 12.2229Q3.98722 12.0095 4.19213 11.8558Q4.40558 11.6936 4.67026 11.6082Q4.93493 11.5143 5.25084 11.5143L5.28499 11.5143L5.31914 11.5484ZM8.81116 21.9733L8.77701 22.0074L8.74286 22.0074Q8.42695 22.0074 8.16228 21.922Q7.8976 21.8367 7.68415 21.683Q7.47924 21.5208 7.31702 21.3158Q7.16334 21.1024 7.07796 20.8377Q6.99258 20.573 6.99258 20.2571L6.99258 20.223L7.02673 20.1888L8.81116 20.1888L8.81116 21.9733ZM8.67455 21.9733L8.67455 20.1888L10.459 20.1888L10.4931 20.223L10.4931 20.2571Q10.4931 20.573 10.3992 20.8377Q10.3138 21.1024 10.1516 21.3158Q9.99794 21.5208 9.78449 21.683Q9.57958 21.8367 9.3149 21.922Q9.05876 22.0074 8.74286 22.0074L8.7087 22.0074L8.67455 21.9733ZM8.67455 18.541L8.7087 18.5069L8.74286 18.5069Q9.05876 18.5069 9.3149 18.6008Q9.57958 18.6862 9.78449 18.8484Q9.99794 19.0021 10.1516 19.2155Q10.3138 19.4204 10.3992 19.6851Q10.4931 19.9412 10.4931 20.2571L10.4931 20.2913L10.459 20.3254L8.67455 20.3254L8.67455 18.541ZM8.81116 18.541L8.81116 20.3254L7.02673 20.3254L6.99258 20.2913L6.99258 20.2571Q6.99258 19.9412 7.07796 19.6851Q7.16334 19.4204 7.31702 19.2155Q7.47924 19.0021 7.68415 18.8484Q7.8976 18.6862 8.16228 18.6008Q8.42695 18.5069 8.74286 18.5069L8.77701 18.5069L8.81116 18.541ZM8.81116 18.4727L8.77701 18.5069L8.74286 18.5069Q8.42695 18.5069 8.16228 18.4215Q7.8976 18.3361 7.68415 18.1824Q7.47924 18.0202 7.31702 17.8153Q7.16334 17.6018 7.07796 17.3372Q6.99258 17.0725 6.99258 16.7566L6.99258 16.7224L7.02673 16.6883L8.81116 16.6883L8.81116 18.4727ZM8.67455 18.4727L8.67455 16.6883L10.459 16.6883L10.4931 16.7224L10.4931 16.7566Q10.4931 17.0725 10.3992 17.3372Q10.3138 17.6018 10.1516 17.8153Q9.99794 18.0202 9.78449 18.1824Q9.57958 18.3361 9.3149 18.4215Q9.05876 18.5069 8.74286 18.5069L8.7087 18.5069L8.67455 18.4727ZM8.67455 15.0405L8.7087 15.0063L8.74286 15.0063Q9.05876 15.0063 9.3149 15.1002Q9.57958 15.1856 9.78449 15.3478Q9.99794 15.5015 10.1516 15.715Q10.3138 15.9199 10.3992 16.1845Q10.4931 16.4407 10.4931 16.7566L10.4931 16.7907L10.459 16.8249L8.67455 16.8249L8.67455 15.0405ZM8.81116 15.0405L8.81116 16.8249L7.02673 16.8249L6.99258 16.7907L6.99258 16.7566Q6.99258 16.4407 7.07796 16.1845Q7.16334 15.9199 7.31702 15.715Q7.47924 15.5015 7.68415 15.3478Q7.8976 15.1856 8.16228 15.1002Q8.42695 15.0063 8.74286 15.0063L8.77701 15.0063L8.81116 15.0405ZM12.3117 25.4653L12.2776 25.4994L12.2434 25.4994Q11.9275 25.4994 11.6628 25.4141Q11.3982 25.3287 11.1847 25.175Q10.9798 25.0128 10.8176 24.8079Q10.6639 24.5944 10.5785 24.3297Q10.4931 24.0651 10.4931 23.7492L10.4931 23.715L10.5273 23.6809L12.3117 23.6809L12.3117 25.4653ZM12.1751 25.4653L12.1751 23.6809L13.9595 23.6809L13.9937 23.715L13.9937 23.7492Q13.9937 24.0651 13.8998 24.3297Q13.8144 24.5944 13.6522 24.8079Q13.4985 25.0128 13.285 25.175Q13.0801 25.3287 12.8155 25.4141Q12.5593 25.4994 12.2434 25.4994L12.2093 25.4994L12.1751 25.4653ZM12.1751 22.033L12.2093 21.9989L12.2434 21.9989Q12.5593 21.9989 12.8155 22.0928Q13.0801 22.1782 13.285 22.3404Q13.4985 22.4941 13.6522 22.7075Q13.8144 22.9124 13.8998 23.1771Q13.9937 23.4333 13.9937 23.7492L13.9937 23.7833L13.9595 23.8175L12.1751 23.8175L12.1751 22.033ZM12.3117 22.033L12.3117 23.8175L10.5273 23.8175L10.4931 23.7833L10.4931 23.7492Q10.4931 23.4333 10.5785 23.1771Q10.6639 22.9124 10.8176 22.7075Q10.9798 22.4941 11.1847 22.3404Q11.3982 22.1782 11.6628 22.0928Q11.9275 21.9989 12.2434 21.9989L12.2776 21.9989L12.3117 22.033ZM12.3117 14.9807L12.2776 15.0148L12.2434 15.0148Q11.9275 15.0148 11.6628 14.9295Q11.3982 14.8441 11.1847 14.6904Q10.9798 14.5282 10.8176 14.3233Q10.6639 14.1098 10.5785 13.8451Q10.4931 13.5805 10.4931 13.2646L10.4931 13.2304L10.5273 13.1963L12.3117 13.1963L12.3117 14.9807ZM12.1751 14.9807L12.1751 13.1963L13.9595 13.1963L13.9937 13.2304L13.9937 13.2646Q13.9937 13.5805 13.8998 13.8451Q13.8144 14.1098 13.6522 14.3233Q13.4985 14.5282 13.285 14.6904Q13.0801 14.8441 12.8155 14.9295Q12.5593 15.0148 12.2434 15.0148L12.2093 15.0148L12.1751 14.9807ZM12.1751 11.5484L12.2093 11.5143L12.2434 11.5143Q12.5593 11.5143 12.8155 11.6082Q13.0801 11.6936 13.285 11.8558Q13.4985 12.0095 13.6522 12.2229Q13.8144 12.4278 13.8998 12.6925Q13.9937 12.9487 13.9937 13.2646L13.9937 13.2987L13.9595 13.3329L12.1751 13.3329L12.1751 11.5484ZM12.3117 11.5484L12.3117 13.3329L10.5273 13.3329L10.4931 13.2987L10.4931 13.2646Q10.4931 12.9487 10.5785 12.6925Q10.6639 12.4278 10.8176 12.2229Q10.9798 12.0095 11.1847 11.8558Q11.3982 11.6936 11.6628 11.6082Q11.9275 11.5143 12.2434 11.5143L12.2776 11.5143L12.3117 11.5484ZM15.8037 28.9658L15.7696 29L15.7354 29Q15.4195 29 15.1549 28.9146Q14.8902 28.8292 14.6767 28.6756Q14.4718 28.5133 14.3096 28.3084Q14.1559 28.095 14.0705 27.8303Q13.9852 27.5656 13.9852 27.2497L13.9852 27.2156L14.0193 27.1814L15.8037 27.1814L15.8037 28.9658ZM15.6671 28.9658L15.6671 27.1814L17.4516 27.1814L17.4857 27.2156L17.4857 27.2497Q17.4857 27.5656 17.3918 27.8303Q17.3064 28.095 17.1442 28.3084Q16.9905 28.5133 16.7771 28.6756Q16.5722 28.8292 16.3075 28.9146Q16.0513 29 15.7354 29L15.7013 29L15.6671 28.9658ZM15.6671 25.5336L15.7013 25.4994L15.7354 25.4994Q16.0513 25.4994 16.3075 25.5934Q16.5722 25.6787 16.7771 25.841Q16.9905 25.9946 17.1442 26.2081Q17.3064 26.413 17.3918 26.6777Q17.4857 26.9338 17.4857 27.2497L17.4857 27.2839L17.4516 27.318L15.6671 27.318L15.6671 25.5336ZM15.8037 25.5336L15.8037 27.318L14.0193 27.318L13.9852 27.2839L13.9852 27.2497Q13.9852 26.9338 14.0705 26.6777Q14.1559 26.413 14.3096 26.2081Q14.4718 25.9946 14.6767 25.841Q14.8902 25.6787 15.1549 25.5934Q15.4195 25.4994 15.7354 25.4994L15.7696 25.4994L15.8037 25.5336ZM15.8037 11.4801L15.7696 11.5143L15.7354 11.5143Q15.4195 11.5143 15.1549 11.4289Q14.8902 11.3435 14.6767 11.1898Q14.4718 11.0276 14.3096 10.8227Q14.1559 10.6093 14.0705 10.3446Q13.9852 10.0799 13.9852 9.76401L13.9852 9.72985L14.0193 9.6957L15.8037 9.6957L15.8037 11.4801ZM15.6671 11.4801L15.6671 9.6957L17.4516 9.6957L17.4857 9.72985L17.4857 9.76401Q17.4857 10.0799 17.3918 10.3446Q17.3064 10.6093 17.1442 10.8227Q16.9905 11.0276 16.7771 11.1898Q16.5722 11.3435 16.3075 11.4289Q16.0513 11.5143 15.7354 11.5143L15.7013 11.5143L15.6671 11.4801ZM15.6671 8.04788L15.7013 8.01373L15.7354 8.01373Q16.0513 8.01373 16.3075 8.10765Q16.5722 8.19303 16.7771 8.35525Q16.9905 8.50893 17.1442 8.72238Q17.3064 8.92729 17.3918 9.19197Q17.4857 9.4481 17.4857 9.76401L17.4857 9.79816L17.4516 9.83231L15.6671 9.83231L15.6671 8.04788ZM15.8037 8.04788L15.8037 9.83231L14.0193 9.83231L13.9852 9.79816L13.9852 9.76401Q13.9852 9.4481 14.0705 9.19197Q14.1559 8.92729 14.3096 8.72238Q14.4718 8.50893 14.6767 8.35525Q14.8902 8.19303 15.1549 8.10765Q15.4195 8.01373 15.7354 8.01373L15.7696 8.01373L15.8037 8.04788ZM43.7843 28.9658L43.7501 29L43.716 29Q43.4001 29 43.1354 28.9146Q42.8707 28.8292 42.6573 28.6756Q42.4524 28.5133 42.2902 28.3084Q42.1365 28.095 42.0511 27.8303Q41.9657 27.5656 41.9657 27.2497L41.9657 27.2156L41.9999 27.1814L43.7843 27.1814L43.7843 28.9658ZM43.6477 28.9658L43.6477 27.1814L45.4321 27.1814L45.4663 27.2156L45.4663 27.2497Q45.4663 27.5656 45.3724 27.8303Q45.287 28.095 45.1248 28.3084Q44.9711 28.5133 44.7576 28.6756Q44.5527 28.8292 44.288 28.9146Q44.0319 29 43.716 29L43.6818 29L43.6477 28.9658ZM43.6477 25.5336L43.6818 25.4994L43.716 25.4994Q44.0319 25.4994 44.288 25.5934Q44.5527 25.6787 44.7576 25.841Q44.9711 25.9946 45.1248 26.2081Q45.287 26.413 45.3724 26.6777Q45.4663 26.9338 45.4663 27.2497L45.4663 27.2839L45.4321 27.318L43.6477 27.318L43.6477 25.5336ZM43.7843 25.5336L43.7843 27.318L41.9999 27.318L41.9657 27.2839L41.9657 27.2497Q41.9657 26.9338 42.0511 26.6777Q42.1365 26.413 42.2902 26.2081Q42.4524 25.9946 42.6573 25.841Q42.8707 25.6787 43.1354 25.5934Q43.4001 25.4994 43.716 25.4994L43.7501 25.4994L43.7843 25.5336ZM43.7843 11.4801L43.7501 11.5143L43.716 11.5143Q43.4001 11.5143 43.1354 11.4289Q42.8707 11.3435 42.6573 11.1898Q42.4524 11.0276 42.2902 10.8227Q42.1365 10.6093 42.0511 10.3446Q41.9657 10.0799 41.9657 9.76401L41.9657 9.72985L41.9999 9.6957L43.7843 9.6957L43.7843 11.4801ZM43.6477 11.4801L43.6477 9.6957L45.4321 9.6957L45.4663 9.72985L45.4663 9.76401Q45.4663 10.0799 45.3724 10.3446Q45.287 10.6093 45.1248 10.8227Q44.9711 11.0276 44.7576 11.1898Q44.5527 11.3435 44.288 11.4289Q44.0319 11.5143 43.716 11.5143L43.6818 11.5143L43.6477 11.4801ZM43.6477 8.04788L43.6818 8.01373L43.716 8.01373Q44.0319 8.01373 44.288 8.10765Q44.5527 8.19303 44.7576 8.35525Q44.9711 8.50893 45.1248 8.72238Q45.287 8.92729 45.3724 9.19197Q45.4663 9.4481 45.4663 9.76401L45.4663 9.79816L45.4321 9.83231L43.6477 9.83231L43.6477 8.04788ZM43.7843 8.04788L43.7843 9.83231L41.9999 9.83231L41.9657 9.79816L41.9657 9.76401Q41.9657 9.4481 42.0511 9.19197Q42.1365 8.92729 42.2902 8.72238Q42.4524 8.50893 42.6573 8.35525Q42.8707 8.19303 43.1354 8.10765Q43.4001 8.01373 43.716 8.01373L43.7501 8.01373L43.7843 8.04788ZM47.2849 25.4653L47.2507 25.4994L47.2165 25.4994Q46.9006 25.4994 46.636 25.4141Q46.3713 25.3287 46.1578 25.175Q45.9529 25.0128 45.7907 24.8079Q45.637 24.5944 45.5517 24.3297Q45.4663 24.0651 45.4663 23.7492L45.4663 23.715L45.5004 23.6809L47.2849 23.6809L47.2849 25.4653ZM47.1482 25.4653L47.1482 23.6809L48.9327 23.6809L48.9668 23.715L48.9668 23.7492Q48.9668 24.0651 48.8729 24.3297Q48.7875 24.5944 48.6253 24.8079Q48.4716 25.0128 48.2582 25.175Q48.0533 25.3287 47.7886 25.4141Q47.5325 25.4994 47.2165 25.4994L47.1824 25.4994L47.1482 25.4653ZM47.1482 22.033L47.1824 21.9989L47.2165 21.9989Q47.5325 21.9989 47.7886 22.0928Q48.0533 22.1782 48.2582 22.3404Q48.4716 22.4941 48.6253 22.7075Q48.7875 22.9124 48.8729 23.1771Q48.9668 23.4333 48.9668 23.7492L48.9668 23.7833L48.9327 23.8175L47.1482 23.8175L47.1482 22.033ZM47.2849 22.033L47.2849 23.8175L45.5004 23.8175L45.4663 23.7833L45.4663 23.7492Q45.4663 23.4333 45.5517 23.1771Q45.637 22.9124 45.7907 22.7075Q45.9529 22.4941 46.1578 22.3404Q46.3713 22.1782 46.636 22.0928Q46.9006 21.9989 47.2165 21.9989L47.2507 21.9989L47.2849 22.033ZM47.2849 14.9807L47.2507 15.0148L47.2165 15.0148Q46.9006 15.0148 46.636 14.9295Q46.3713 14.8441 46.1578 14.6904Q45.9529 14.5282 45.7907 14.3233Q45.637 14.1098 45.5517 13.8451Q45.4663 13.5805 45.4663 13.2646L45.4663 13.2304L45.5004 13.1963L47.2849 13.1963L47.2849 14.9807ZM47.1482 14.9807L47.1482 13.1963L48.9327 13.1963L48.9668 13.2304L48.9668 13.2646Q48.9668 13.5805 48.8729 13.8451Q48.7875 14.1098 48.6253 14.3233Q48.4716 14.5282 48.2582 14.6904Q48.0533 14.8441 47.7886 14.9295Q47.5325 15.0148 47.2165 15.0148L47.1824 15.0148L47.1482 14.9807ZM47.1482 11.5484L47.1824 11.5143L47.2165 11.5143Q47.5325 11.5143 47.7886 11.6082Q48.0533 11.6936 48.2582 11.8558Q48.4716 12.0095 48.6253 12.2229Q48.7875 12.4278 48.8729 12.6925Q48.9668 12.9487 48.9668 13.2646L48.9668 13.2987L48.9327 13.3329L47.1482 13.3329L47.1482 11.5484ZM47.2849 11.5484L47.2849 13.3329L45.5004 13.3329L45.4663 13.2987L45.4663 13.2646Q45.4663 12.9487 45.5517 12.6925Q45.637 12.4278 45.7907 12.2229Q45.9529 12.0095 46.1578 11.8558Q46.3713 11.6936 46.636 11.6082Q46.9006 11.5143 47.2165 11.5143L47.2507 11.5143L47.2849 11.5484ZM50.7769 21.9733L50.7427 22.0074L50.7086 22.0074Q50.3927 22.0074 50.128 21.922Q49.8633 21.8367 49.6499 21.683Q49.445 21.5208 49.2827 21.3158Q49.1291 21.1024 49.0437 20.8377Q48.9583 20.573 48.9583 20.2571L48.9583 20.223L48.9924 20.1888L50.7769 20.1888L50.7769 21.9733ZM50.6403 21.9733L50.6403 20.1888L52.4247 20.1888L52.4589 20.223L52.4589 20.2571Q52.4589 20.573 52.3649 20.8377Q52.2796 21.1024 52.1173 21.3158Q51.9636 21.5208 51.7502 21.683Q51.5453 21.8367 51.2806 21.922Q51.0245 22.0074 50.7086 22.0074L50.6744 22.0074L50.6403 21.9733ZM50.6403 18.541L50.6744 18.5069L50.7086 18.5069Q51.0245 18.5069 51.2806 18.6008Q51.5453 18.6862 51.7502 18.8484Q51.9636 19.0021 52.1173 19.2155Q52.2796 19.4204 52.3649 19.6851Q52.4589 19.9412 52.4589 20.2571L52.4589 20.2913L52.4247 20.3254L50.6403 20.3254L50.6403 18.541ZM50.7769 18.541L50.7769 20.3254L48.9924 20.3254L48.9583 20.2913L48.9583 20.2571Q48.9583 19.9412 49.0437 19.6851Q49.1291 19.4204 49.2827 19.2155Q49.445 19.0021 49.6499 18.8484Q49.8633 18.6862 50.128 18.6008Q50.3927 18.5069 50.7086 18.5069L50.7427 18.5069L50.7769 18.541ZM50.7769 18.4727L50.7427 18.5069L50.7086 18.5069Q50.3927 18.5069 50.128 18.4215Q49.8633 18.3361 49.6499 18.1824Q49.445 18.0202 49.2827 17.8153Q49.1291 17.6018 49.0437 17.3372Q48.9583 17.0725 48.9583 16.7566L48.9583 16.7224L48.9924 16.6883L50.7769 16.6883L50.7769 18.4727ZM50.6403 18.4727L50.6403 16.6883L52.4247 16.6883L52.4589 16.7224L52.4589 16.7566Q52.4589 17.0725 52.3649 17.3372Q52.2796 17.6018 52.1173 17.8153Q51.9636 18.0202 51.7502 18.1824Q51.5453 18.3361 51.2806 18.4215Q51.0245 18.5069 50.7086 18.5069L50.6744 18.5069L50.6403 18.4727ZM50.6403 15.0405L50.6744 15.0063L50.7086 15.0063Q51.0245 15.0063 51.2806 15.1002Q51.5453 15.1856 51.7502 15.3478Q51.9636 15.5015 52.1173 15.715Q52.2796 15.9199 52.3649 16.1845Q52.4589 16.4407 52.4589 16.7566L52.4589 16.7907L52.4247 16.8249L50.6403 16.8249L50.6403 15.0405ZM50.7769 15.0405L50.7769 16.8249L48.9924 16.8249L48.9583 16.7907L48.9583 16.7566Q48.9583 16.4407 49.0437 16.1845Q49.1291 15.9199 49.2827 15.715Q49.445 15.5015 49.6499 15.3478Q49.8633 15.1856 50.128 15.1002Q50.3927 15.0063 50.7086 15.0063L50.7427 15.0063L50.7769 15.0405ZM54.2774 25.4653L54.2433 25.4994L54.2091 25.4994Q53.8932 25.4994 53.6285 25.4141Q53.3639 25.3287 53.1504 25.175Q52.9455 25.0128 52.7833 24.8079Q52.6296 24.5944 52.5442 24.3297Q52.4589 24.0651 52.4589 23.7492L52.4589 23.715L52.493 23.6809L54.2774 23.6809L54.2774 25.4653ZM54.1408 25.4653L54.1408 23.6809L55.9253 23.6809L55.9594 23.715L55.9594 23.7492Q55.9594 24.0651 55.8655 24.3297Q55.7801 24.5944 55.6179 24.8079Q55.4642 25.0128 55.2508 25.175Q55.0458 25.3287 54.7812 25.4141Q54.525 25.4994 54.2091 25.4994L54.175 25.4994L54.1408 25.4653ZM54.1408 22.033L54.175 21.9989L54.2091 21.9989Q54.525 21.9989 54.7812 22.0928Q55.0458 22.1782 55.2508 22.3404Q55.4642 22.4941 55.6179 22.7075Q55.7801 22.9124 55.8655 23.1771Q55.9594 23.4333 55.9594 23.7492L55.9594 23.7833L55.9253 23.8175L54.1408 23.8175L54.1408 22.033ZM54.2774 22.033L54.2774 23.8175L52.493 23.8175L52.4589 23.7833L52.4589 23.7492Q52.4589 23.4333 52.5442 23.1771Q52.6296 22.9124 52.7833 22.7075Q52.9455 22.4941 53.1504 22.3404Q53.3639 22.1782 53.6285 22.0928Q53.8932 21.9989 54.2091 21.9989L54.2433 21.9989L54.2774 22.033ZM54.2774 14.9807L54.2433 15.0148L54.2091 15.0148Q53.8932 15.0148 53.6285 14.9295Q53.3639 14.8441 53.1504 14.6904Q52.9455 14.5282 52.7833 14.3233Q52.6296 14.1098 52.5442 13.8451Q52.4589 13.5805 52.4589 13.2646L52.4589 13.2304L52.493 13.1963L54.2774 13.1963L54.2774 14.9807ZM54.1408 14.9807L54.1408 13.1963L55.9253 13.1963L55.9594 13.2304L55.9594 13.2646Q55.9594 13.5805 55.8655 13.8451Q55.7801 14.1098 55.6179 14.3233Q55.4642 14.5282 55.2508 14.6904Q55.0458 14.8441 54.7812 14.9295Q54.525 15.0148 54.2091 15.0148L54.175 15.0148L54.1408 14.9807ZM54.1408 11.5484L54.175 11.5143L54.2091 11.5143Q54.525 11.5143 54.7812 11.6082Q55.0458 11.6936 55.2508 11.8558Q55.4642 12.0095 55.6179 12.2229Q55.7801 12.4278 55.8655 12.6925Q55.9594 12.9487 55.9594 13.2646L55.9594 13.2987L55.9253 13.3329L54.1408 13.3329L54.1408 11.5484ZM54.2774 11.5484L54.2774 13.3329L52.493 13.3329L52.4589 13.2987L52.4589 13.2646Q52.4589 12.9487 52.5442 12.6925Q52.6296 12.4278 52.7833 12.2229Q52.9455 12.0095 53.1504 11.8558Q53.3639 11.6936 53.6285 11.6082Q53.8932 11.5143 54.2091 11.5143L54.2433 11.5143L54.2774 11.5484ZM57.7695 28.9658L57.7353 29L57.7011 29Q57.3852 29 57.1206 28.9146Q56.8559 28.8292 56.6424 28.6756Q56.4375 28.5133 56.2753 28.3084Q56.1216 28.095 56.0362 27.8303Q55.9509 27.5656 55.9509 27.2497L55.9509 27.2156L55.985 27.1814L57.7695 27.1814L57.7695 28.9658ZM57.6328 28.9658L57.6328 27.1814L59.4173 27.1814L59.4514 27.2156L59.4514 27.2497Q59.4514 27.5656 59.3575 27.8303Q59.2721 28.095 59.1099 28.3084Q58.9562 28.5133 58.7428 28.6756Q58.5379 28.8292 58.2732 28.9146Q58.0171 29 57.7011 29L57.667 29L57.6328 28.9658ZM57.6328 25.5336L57.667 25.4994L57.7011 25.4994Q58.0171 25.4994 58.2732 25.5934Q58.5379 25.6787 58.7428 25.841Q58.9562 25.9946 59.1099 26.2081Q59.2721 26.413 59.3575 26.6777Q59.4514 26.9338 59.4514 27.2497L59.4514 27.2839L59.4173 27.318L57.6328 27.318L57.6328 25.5336ZM57.7695 25.5336L57.7695 27.318L55.985 27.318L55.9509 27.2839L55.9509 27.2497Q55.9509 26.9338 56.0362 26.6777Q56.1216 26.413 56.2753 26.2081Q56.4375 25.9946 56.6424 25.841Q56.8559 25.6787 57.1206 25.5934Q57.3852 25.4994 57.7011 25.4994L57.7353 25.4994L57.7695 25.5336ZM57.7695 11.4801L57.7353 11.5143L57.7011 11.5143Q57.3852 11.5143 57.1206 11.4289Q56.8559 11.3435 56.6424 11.1898Q56.4375 11.0276 56.2753 10.8227Q56.1216 10.6093 56.0362 10.3446Q55.9509 10.0799 55.9509 9.76401L55.9509 9.72985L55.985 9.6957L57.7695 9.6957L57.7695 11.4801ZM57.6328 11.4801L57.6328 9.6957L59.4173 9.6957L59.4514 9.72985L59.4514 9.76401Q59.4514 10.0799 59.3575 10.3446Q59.2721 10.6093 59.1099 10.8227Q58.9562 11.0276 58.7428 11.1898Q58.5379 11.3435 58.2732 11.4289Q58.0171 11.5143 57.7011 11.5143L57.667 11.5143L57.6328 11.4801ZM57.6328 8.04788L57.667 8.01373L57.7011 8.01373Q58.0171 8.01373 58.2732 8.10765Q58.5379 8.19303 58.7428 8.35525Q58.9562 8.50893 59.1099 8.72238Q59.2721 8.92729 59.3575 9.19197Q59.4514 9.4481 59.4514 9.76401L59.4514 9.79816L59.4173 9.83231L57.6328 9.83231L57.6328 8.04788ZM57.7695 8.04788L57.7695 9.83231L55.985 9.83231L55.9509 9.79816L55.9509 9.76401Q55.9509 9.4481 56.0362 9.19197Q56.1216 8.92729 56.2753 8.72238Q56.4375 8.50893 56.6424 8.35525Q56.8559 8.19303 57.1206 8.10765Q57.3852 8.01373 57.7011 8.01373L57.7353 8.01373L57.7695 8.04788Z" fill="rgb(123,117,103)" fill-rule="nonzero" />
		<g id="组合 339">
			<circle id="椭圆 66" cx="20.764328" cy="52.4571991" r="2.18571424" fill="rgb(123,117,103)" />
			<ellipse id="椭圆 67" rx="2.185714" ry="2.185722" cx="26.2286835" cy="49.1788864" fill="rgb(123,117,103)" />
			<circle id="椭圆 68" cx="31.6930389" cy="48.0851288" r="2.18571424" fill="rgb(123,117,103)" />
			<ellipse id="椭圆 70" rx="2.185714" ry="2.185722" cx="37.1569061" cy="49.1788864" fill="rgb(123,117,103)" />
			<circle id="椭圆 71" cx="42.6217499" cy="52.4571991" r="2.18571424" fill="rgb(123,117,103)" />
		</g>
	</g>
</svg>
