<svg viewBox="0 0 41.2163 52.457" xmlns="http://www.w3.org/2000/svg" xmlns:xlink="http://www.w3.org/1999/xlink" width="41.216309" height="52.457031" fill="none" customFrame="#000000">
	<g id="组合 343">
		<path id="合并" d="M41.2163 3.74694L41.2163 0L0 0L0 3.74694L41.2163 3.74694ZM7.49402 14.9879L7.49402 3.74708L3.74708 3.74708L3.74708 14.9879L7.49402 14.9879ZM37.4696 14.9879L37.4696 3.74708L33.7227 3.74708L33.7227 14.9879L37.4696 14.9879ZM11.2411 18.7342L11.2411 14.9873L7.49414 14.9873L7.49414 18.7342L11.2411 18.7342ZM26.2286 18.7342L26.2286 14.9873L14.9878 14.9873L14.9878 18.7342L26.2286 18.7342ZM33.7225 14.9873L33.7225 18.7342L29.9756 18.7342L29.9756 14.9873L33.7225 14.9873ZM22.4813 18.7344L22.4813 22.4813L18.7344 22.4813L18.7344 18.7344L22.4813 18.7344ZM29.9755 18.7344L29.9755 22.4813L26.2285 22.4813L26.2285 18.7344L29.9755 18.7344ZM14.9877 22.4813L14.9877 18.7344L11.2407 18.7344L11.2407 22.4813L14.9877 22.4813ZM26.2284 22.4814L26.2284 29.9753L22.4814 29.9753L22.4814 22.4814L26.2284 22.4814ZM18.7347 29.9753L18.7347 22.4814L14.9878 22.4814L14.9878 29.9753L18.7347 29.9753ZM14.9877 29.9756L14.9877 33.7225L11.2407 33.7225L11.2407 29.9756L14.9877 29.9756ZM29.9755 29.9756L29.9755 33.7225L26.2285 33.7225L26.2285 29.9756L29.9755 29.9756ZM11.2411 33.7227L11.2411 37.4696L7.49414 37.4696L7.49414 33.7227L11.2411 33.7227ZM33.7225 33.7227L33.7225 37.4696L29.9756 37.4696L29.9756 33.7227L33.7225 33.7227ZM0 48.71L3.74708 48.71L3.74708 37.4697L7.49402 37.4697L7.49402 48.71L33.7227 48.71L33.7227 37.4697L37.4696 37.4697L37.4696 48.71L41.2163 48.71L41.2163 52.4569L0 52.4569L0 48.71ZM18.7344 41.2158L14.9878 41.2158L14.9878 44.9628L26.2286 44.9628L26.2286 41.2158L22.4813 41.2158L22.4813 37.4697L18.7344 37.4697L18.7344 41.2158ZM29.9754 44.9629L29.9754 48.7098L11.2407 48.7098L11.2407 44.9629L29.9754 44.9629Z" fill="rgb(123,117,103)" fill-rule="evenodd" />
		<path id="合并" d="M26.2286 18.7342L26.2286 14.9873L14.9878 14.9873L14.9878 18.7342L26.2286 18.7342ZM22.4818 22.4813L22.4818 18.7344L18.7349 18.7344L18.7349 22.4813L22.4818 22.4813ZM18.7349 41.2158L14.9878 41.2158L14.9878 44.9628L26.2286 44.9628L26.2286 41.2158L22.4818 41.2158L22.4818 37.4697L18.7349 37.4697L18.7349 41.2158ZM29.9754 44.9629L29.9754 48.7098L11.2407 48.7098L11.2407 44.9629L29.9754 44.9629Z" fill="rgb(162,154,137)" fill-rule="evenodd" />
	</g>
</svg>
