<svg viewBox="0 0 72 72" xmlns="http://www.w3.org/2000/svg" xmlns:xlink="http://www.w3.org/1999/xlink" width="72.000000" height="72.000000" fill="none" customFrame="#000000">
	<defs>
		<linearGradient id="paint_linear_1" x1="19.8371334" x2="54.0869827" y1="4.90882397" y2="62.4183807" gradientUnits="userSpaceOnUse">
			<stop stop-color="rgb(239,241,234)" offset="0.188454151" stop-opacity="1" />
			<stop stop-color="rgb(239,241,234)" offset="1" stop-opacity="0" />
		</linearGradient>
		<linearGradient id="paint_linear_2" x1="12.4362812" x2="54.183197" y1="3.47720718" y2="51.3821564" gradientUnits="userSpaceOnUse">
			<stop stop-color="rgb(214,215,207)" offset="0" stop-opacity="1" />
			<stop stop-color="rgb(215,216,203)" offset="0.491101623" stop-opacity="1" />
			<stop stop-color="rgb(231,233,225)" offset="0.610109389" stop-opacity="1" />
			<stop stop-color="rgb(238,239,234)" offset="1" stop-opacity="1" />
		</linearGradient>
		<linearGradient id="paint_linear_3" x1="35.9999161" x2="35.9999161" y1="10.4726562" y2="47.7817459" gradientUnits="userSpaceOnUse">
			<stop stop-color="rgb(255,255,255)" offset="0" stop-opacity="1" />
			<stop stop-color="rgb(255,255,255)" offset="1" stop-opacity="0" />
		</linearGradient>
		<linearGradient id="paint_linear_4" x1="14.3999062" x2="51.6182556" y1="6.17743683" y2="49.9325905" gradientUnits="userSpaceOnUse">
			<stop stop-color="rgb(148,196,241)" offset="0" stop-opacity="1" />
			<stop stop-color="rgb(199,224,248)" offset="1" stop-opacity="1" />
		</linearGradient>
		<linearGradient id="paint_linear_5" x1="56.290802" x2="15.7089844" y1="16.3632812" y2="16.3632812" gradientUnits="userSpaceOnUse">
			<stop stop-color="rgb(255,255,255)" offset="0" stop-opacity="1" />
			<stop stop-color="rgb(255,255,255)" offset="0.5" stop-opacity="0.400000006" />
			<stop stop-color="rgb(255,255,255)" offset="1" stop-opacity="1" />
		</linearGradient>
		<linearGradient id="paint_linear_6" x1="56.290802" x2="15.7089844" y1="20.2910156" y2="20.2910156" gradientUnits="userSpaceOnUse">
			<stop stop-color="rgb(255,255,255)" offset="0" stop-opacity="1" />
			<stop stop-color="rgb(255,255,255)" offset="0.5" stop-opacity="0.400000006" />
			<stop stop-color="rgb(255,255,255)" offset="1" stop-opacity="1" />
		</linearGradient>
		<linearGradient id="paint_linear_7" x1="56.290802" x2="15.7089844" y1="24.2177734" y2="24.2177734" gradientUnits="userSpaceOnUse">
			<stop stop-color="rgb(255,255,255)" offset="0" stop-opacity="1" />
			<stop stop-color="rgb(255,255,255)" offset="0.5" stop-opacity="0.400000006" />
			<stop stop-color="rgb(255,255,255)" offset="1" stop-opacity="1" />
		</linearGradient>
		<linearGradient id="paint_linear_8" x1="56.290802" x2="15.7089844" y1="28.1455078" y2="28.1455078" gradientUnits="userSpaceOnUse">
			<stop stop-color="rgb(255,255,255)" offset="0" stop-opacity="1" />
			<stop stop-color="rgb(255,255,255)" offset="0.5" stop-opacity="0.400000006" />
			<stop stop-color="rgb(255,255,255)" offset="1" stop-opacity="1" />
		</linearGradient>
		<linearGradient id="paint_linear_9" x1="56.290802" x2="15.7089844" y1="32.0722656" y2="32.0722656" gradientUnits="userSpaceOnUse">
			<stop stop-color="rgb(255,255,255)" offset="0" stop-opacity="1" />
			<stop stop-color="rgb(255,255,255)" offset="0.5" stop-opacity="0.400000006" />
			<stop stop-color="rgb(255,255,255)" offset="1" stop-opacity="1" />
		</linearGradient>
		<linearGradient id="paint_linear_10" x1="56.290802" x2="15.7089844" y1="36" y2="36" gradientUnits="userSpaceOnUse">
			<stop stop-color="rgb(255,255,255)" offset="0" stop-opacity="1" />
			<stop stop-color="rgb(255,255,255)" offset="0.5" stop-opacity="0.400000006" />
			<stop stop-color="rgb(255,255,255)" offset="1" stop-opacity="1" />
		</linearGradient>
		<linearGradient id="paint_linear_11" x1="56.290802" x2="15.7089844" y1="39.9277344" y2="39.9277344" gradientUnits="userSpaceOnUse">
			<stop stop-color="rgb(255,255,255)" offset="0" stop-opacity="1" />
			<stop stop-color="rgb(255,255,255)" offset="0.5" stop-opacity="0.400000006" />
			<stop stop-color="rgb(255,255,255)" offset="1" stop-opacity="1" />
		</linearGradient>
	</defs>
	<g id="组合 345">
		<rect id="矩形 446" width="72.000000" height="72.000000" x="0.000000" y="0.000000" fill="rgb(237,237,237)" fill-opacity="0" />
		<rect id="矩形 446" width="71.345451" height="71.345451" x="0.327273" y="0.327273" stroke="rgb(0,0,0)" stroke-opacity="0" stroke-width="0.654545" />
		<rect id="矩形 447" width="53.672726" height="65.454544" x="9.163574" y="3.272461" rx="2.618182" fill="rgb(232,235,224)" />
		<rect id="矩形 447" width="53.018181" height="64.799995" x="9.490847" y="3.599734" rx="2.290909" stroke="url(#paint_linear_1)" stroke-width="0.654545" />
		<g id="组合 327">
			<rect id="矩形 448" width="47.127270" height="37.309090" x="12.436279" y="10.472656" rx="2.618182" fill="url(#paint_linear_2)" />
			<rect id="矩形 448" width="46.799995" height="36.981815" x="12.599916" y="10.636292" rx="2.454545" stroke="url(#paint_linear_3)" stroke-opacity="0.100000001" stroke-width="0.327273" />
			<rect id="矩形 449" width="43.199997" height="33.381817" x="14.399902" y="12.436523" rx="2.618182" opacity="0" fill="url(#paint_linear_4)" />
			<rect id="矩形 449" width="41.890907" height="32.072727" x="15.054448" y="13.091069" rx="1.963636" opacity="0" stroke="rgb(133,135,127)" stroke-width="1.309091" />
			<g id="组合 324" opacity="0.099999994">
				<path id="矢量 175" d="M15.709 16.3633L56.2908 16.3633" stroke="url(#paint_linear_5)" stroke-width="0.392727" />
				<path id="矢量 176" d="M15.709 20.291L56.2908 20.291" stroke="url(#paint_linear_6)" stroke-width="0.392727" />
				<path id="矢量 177" d="M15.709 24.2178L56.2908 24.2178" stroke="url(#paint_linear_7)" stroke-width="0.392727" />
				<path id="矢量 178" d="M15.709 28.1455L56.2908 28.1455" stroke="url(#paint_linear_8)" stroke-width="0.392727" />
				<path id="矢量 179" d="M15.709 32.0723L56.2908 32.0723" stroke="url(#paint_linear_9)" stroke-width="0.392727" />
				<path id="矢量 180" d="M15.709 36L56.2908 36" stroke="url(#paint_linear_10)" stroke-width="0.392727" />
				<path id="矢量 181" d="M15.709 39.9277L56.2908 39.9277" stroke="url(#paint_linear_11)" stroke-width="0.392727" />
			</g>
			<path id="" d="M22.2387 28.5674L22.2145 28.5917L22.1902 28.5917Q21.9655 28.5917 21.7772 28.5309Q21.589 28.4702 21.4372 28.3609Q21.2914 28.2455 21.1761 28.0998Q21.0668 27.948 21.006 27.7597Q20.9453 27.5715 20.9453 27.3468L20.9453 27.3225L20.9696 27.2982L22.2387 27.2982L22.2387 28.5674ZM22.1416 28.5674L22.1416 27.2982L23.4107 27.2982L23.435 27.3225L23.435 27.3468Q23.435 27.5715 23.3682 27.7597Q23.3075 27.948 23.1921 28.0998Q23.0828 28.2455 22.931 28.3609Q22.7853 28.4702 22.597 28.5309Q22.4148 28.5917 22.1902 28.5917L22.1659 28.5917L22.1416 28.5674ZM22.1416 26.1262L22.1659 26.102L22.1902 26.102Q22.4148 26.102 22.597 26.1688Q22.7853 26.2295 22.931 26.3449Q23.0828 26.4542 23.1921 26.606Q23.3075 26.7517 23.3682 26.94Q23.435 27.1221 23.435 27.3468L23.435 27.3711L23.4107 27.3954L22.1416 27.3954L22.1416 26.1262ZM22.2387 26.1262L22.2387 27.3954L20.9696 27.3954L20.9453 27.3711L20.9453 27.3468Q20.9453 27.1221 21.006 26.94Q21.0668 26.7517 21.1761 26.606Q21.2914 26.4542 21.4372 26.3449Q21.589 26.2295 21.7772 26.1688Q21.9655 26.102 22.1902 26.102L22.2145 26.102L22.2387 26.1262ZM22.2387 26.0837L22.2145 26.108L22.1902 26.108Q21.9655 26.108 21.7772 26.0473Q21.589 25.9866 21.4372 25.8773Q21.2914 25.7619 21.1761 25.6162Q21.0668 25.4643 21.006 25.2761Q20.9453 25.0879 20.9453 24.8632L20.9453 24.8389L20.9696 24.8146L22.2387 24.8146L22.2387 26.0837ZM22.1416 26.0837L22.1416 24.8146L23.4107 24.8146L23.435 24.8389L23.435 24.8632Q23.435 25.0879 23.3682 25.2761Q23.3075 25.4643 23.1921 25.6162Q23.0828 25.7619 22.931 25.8773Q22.7853 25.9866 22.597 26.0473Q22.4148 26.108 22.1902 26.108L22.1659 26.108L22.1416 26.0837ZM22.1416 23.6426L22.1659 23.6183L22.1902 23.6183Q22.4148 23.6183 22.597 23.6851Q22.7853 23.7458 22.931 23.8612Q23.0828 23.9705 23.1921 24.1223Q23.3075 24.2681 23.3682 24.4563Q23.435 24.6385 23.435 24.8632L23.435 24.8875L23.4107 24.9118L22.1416 24.9118L22.1416 23.6426ZM22.2387 23.6426L22.2387 24.9118L20.9696 24.9118L20.9453 24.8875L20.9453 24.8632Q20.9453 24.6385 21.006 24.4563Q21.0668 24.2681 21.1761 24.1223Q21.2914 23.9705 21.4372 23.8612Q21.589 23.7458 21.7772 23.6851Q21.9655 23.6183 22.1902 23.6183L22.2145 23.6183L22.2387 23.6426ZM24.7284 36.0304L24.7042 36.0547L24.6799 36.0547Q24.4552 36.0547 24.2669 35.994Q24.0787 35.9332 23.9269 35.8239Q23.7811 35.7086 23.6658 35.5628Q23.5565 35.411 23.4957 35.2228Q23.435 35.0345 23.435 34.8098L23.435 34.7855L23.4593 34.7613L24.7284 34.7613L24.7284 36.0304ZM24.6313 36.0304L24.6313 34.7613L25.9004 34.7613L25.9247 34.7855L25.9247 34.8098Q25.9247 35.0345 25.8579 35.2228Q25.7972 35.411 25.6818 35.5628Q25.5725 35.7086 25.4207 35.8239Q25.275 35.9332 25.0867 35.994Q24.9045 36.0547 24.6799 36.0547L24.6556 36.0547L24.6313 36.0304ZM24.6313 33.5893L24.6556 33.565L24.6799 33.565Q24.9045 33.565 25.0867 33.6318Q25.275 33.6925 25.4207 33.8079Q25.5725 33.9172 25.6818 34.069Q25.7972 34.2147 25.8579 34.403Q25.9247 34.5852 25.9247 34.8098L25.9247 34.8341L25.9004 34.8584L24.6313 34.8584L24.6313 33.5893ZM24.7284 33.5893L24.7284 34.8584L23.4593 34.8584L23.435 34.8341L23.435 34.8098Q23.435 34.5852 23.4957 34.403Q23.5565 34.2147 23.6658 34.069Q23.7811 33.9172 23.9269 33.8079Q24.0787 33.6925 24.2669 33.6318Q24.4552 33.565 24.6799 33.565L24.7042 33.565L24.7284 33.5893ZM24.7284 31.0571L24.7042 31.0814L24.6799 31.0814Q24.4552 31.0814 24.2669 31.0206Q24.0787 30.9599 23.9269 30.8506Q23.7811 30.7352 23.6658 30.5895Q23.5565 30.4377 23.4957 30.2494Q23.435 30.0612 23.435 29.8365L23.435 29.8122L23.4593 29.7879L24.7284 29.7879L24.7284 31.0571ZM24.6313 31.0571L24.6313 29.7879L25.9004 29.7879L25.9247 29.8122L25.9247 29.8365Q25.9247 30.0612 25.8579 30.2494Q25.7972 30.4377 25.6818 30.5895Q25.5725 30.7352 25.4207 30.8506Q25.275 30.9599 25.0867 31.0206Q24.9045 31.0814 24.6799 31.0814L24.6556 31.0814L24.6313 31.0571ZM24.6313 28.6159L24.6556 28.5917L24.6799 28.5917Q24.9045 28.5917 25.0867 28.6585Q25.275 28.7192 25.4207 28.8346Q25.5725 28.9439 25.6818 29.0957Q25.7972 29.2414 25.8579 29.4297Q25.9247 29.6118 25.9247 29.8365L25.9247 29.8608L25.9004 29.8851L24.6313 29.8851L24.6313 28.6159ZM24.7284 28.6159L24.7284 29.8851L23.4593 29.8851L23.435 29.8608L23.435 29.8365Q23.435 29.6118 23.4957 29.4297Q23.5565 29.2414 23.6658 29.0957Q23.7811 28.9439 23.9269 28.8346Q24.0787 28.7192 24.2669 28.6585Q24.4552 28.5917 24.6799 28.5917L24.7042 28.5917L24.7284 28.6159ZM24.7284 23.594L24.7042 23.6183L24.6799 23.6183Q24.4552 23.6183 24.2669 23.5576Q24.0787 23.4969 23.9269 23.3876Q23.7811 23.2722 23.6658 23.1265Q23.5565 22.9746 23.4957 22.7864Q23.435 22.5982 23.435 22.3735L23.435 22.3492L23.4593 22.3249L24.7284 22.3249L24.7284 23.594ZM24.6313 23.594L24.6313 22.3249L25.9004 22.3249L25.9247 22.3492L25.9247 22.3735Q25.9247 22.5982 25.8579 22.7864Q25.7972 22.9746 25.6818 23.1265Q25.5725 23.2722 25.4207 23.3876Q25.275 23.4969 25.0867 23.5576Q24.9045 23.6183 24.6799 23.6183L24.6556 23.6183L24.6313 23.594ZM24.6313 21.1529L24.6556 21.1286L24.6799 21.1286Q24.9045 21.1286 25.0867 21.1954Q25.275 21.2561 25.4207 21.3715Q25.5725 21.4808 25.6818 21.6326Q25.7972 21.7784 25.8579 21.9666Q25.9247 22.1488 25.9247 22.3735L25.9247 22.3978L25.9004 22.4221L24.6313 22.4221L24.6313 21.1529ZM24.7284 21.1529L24.7284 22.4221L23.4593 22.4221L23.435 22.3978L23.435 22.3735Q23.435 22.1488 23.4957 21.9666Q23.5565 21.7784 23.6658 21.6326Q23.7811 21.4808 23.9269 21.3715Q24.0787 21.2561 24.2669 21.1954Q24.4552 21.1286 24.6799 21.1286L24.7042 21.1286L24.7284 21.1529ZM27.2121 36.0304L27.1878 36.0547L27.1635 36.0547Q26.9388 36.0547 26.7506 35.994Q26.5623 35.9332 26.4105 35.8239Q26.2648 35.7086 26.1494 35.5628Q26.0401 35.411 25.9794 35.2228Q25.9186 35.0345 25.9186 34.8098L25.9186 34.7855L25.9429 34.7613L27.2121 34.7613L27.2121 36.0304ZM27.1149 36.0304L27.1149 34.7613L28.3841 34.7613L28.4083 34.7855L28.4083 34.8098Q28.4083 35.0345 28.3415 35.2228Q28.2808 35.411 28.1654 35.5628Q28.0561 35.7086 27.9043 35.8239Q27.7586 35.9332 27.5703 35.994Q27.3882 36.0547 27.1635 36.0547L27.1392 36.0547L27.1149 36.0304ZM27.1149 33.5893L27.1392 33.565L27.1635 33.565Q27.3882 33.565 27.5703 33.6318Q27.7586 33.6925 27.9043 33.8079Q28.0561 33.9172 28.1654 34.069Q28.2808 34.2147 28.3415 34.403Q28.4083 34.5852 28.4083 34.8098L28.4083 34.8341L28.3841 34.8584L27.1149 34.8584L27.1149 33.5893ZM27.2121 33.5893L27.2121 34.8584L25.9429 34.8584L25.9186 34.8341L25.9186 34.8098Q25.9186 34.5852 25.9794 34.403Q26.0401 34.2147 26.1494 34.069Q26.2648 33.9172 26.4105 33.8079Q26.5623 33.6925 26.7506 33.6318Q26.9388 33.565 27.1635 33.565L27.1878 33.565L27.2121 33.5893ZM27.2121 31.0571L27.1878 31.0814L27.1635 31.0814Q26.9388 31.0814 26.7506 31.0206Q26.5623 30.9599 26.4105 30.8506Q26.2648 30.7352 26.1494 30.5895Q26.0401 30.4377 25.9794 30.2494Q25.9186 30.0612 25.9186 29.8365L25.9186 29.8122L25.9429 29.7879L27.2121 29.7879L27.2121 31.0571ZM27.1149 31.0571L27.1149 29.7879L28.3841 29.7879L28.4083 29.8122L28.4083 29.8365Q28.4083 30.0612 28.3415 30.2494Q28.2808 30.4377 28.1654 30.5895Q28.0561 30.7352 27.9043 30.8506Q27.7586 30.9599 27.5703 31.0206Q27.3882 31.0814 27.1635 31.0814L27.1392 31.0814L27.1149 31.0571ZM27.1149 28.6159L27.1392 28.5917L27.1635 28.5917Q27.3882 28.5917 27.5703 28.6585Q27.7586 28.7192 27.9043 28.8346Q28.0561 28.9439 28.1654 29.0957Q28.2808 29.2414 28.3415 29.4297Q28.4083 29.6118 28.4083 29.8365L28.4083 29.8608L28.3841 29.8851L27.1149 29.8851L27.1149 28.6159ZM27.2121 28.6159L27.2121 29.8851L25.9429 29.8851L25.9186 29.8608L25.9186 29.8365Q25.9186 29.6118 25.9794 29.4297Q26.0401 29.2414 26.1494 29.0957Q26.2648 28.9439 26.4105 28.8346Q26.5623 28.7192 26.7506 28.6585Q26.9388 28.5917 27.1635 28.5917L27.1878 28.5917L27.2121 28.6159ZM27.2121 23.594L27.1878 23.6183L27.1635 23.6183Q26.9388 23.6183 26.7506 23.5576Q26.5623 23.4969 26.4105 23.3876Q26.2648 23.2722 26.1494 23.1265Q26.0401 22.9746 25.9794 22.7864Q25.9186 22.5982 25.9186 22.3735L25.9186 22.3492L25.9429 22.3249L27.2121 22.3249L27.2121 23.594ZM27.1149 23.594L27.1149 22.3249L28.3841 22.3249L28.4083 22.3492L28.4083 22.3735Q28.4083 22.5982 28.3415 22.7864Q28.2808 22.9746 28.1654 23.1265Q28.0561 23.2722 27.9043 23.3876Q27.7586 23.4969 27.5703 23.5576Q27.3882 23.6183 27.1635 23.6183L27.1392 23.6183L27.1149 23.594ZM27.1149 21.1529L27.1392 21.1286L27.1635 21.1286Q27.3882 21.1286 27.5703 21.1954Q27.7586 21.2561 27.9043 21.3715Q28.0561 21.4808 28.1654 21.6326Q28.2808 21.7784 28.3415 21.9666Q28.4083 22.1488 28.4083 22.3735L28.4083 22.3978L28.3841 22.4221L27.1149 22.4221L27.1149 21.1529ZM27.2121 21.1529L27.2121 22.4221L25.9429 22.4221L25.9186 22.3978L25.9186 22.3735Q25.9186 22.1488 25.9794 21.9666Q26.0401 21.7784 26.1494 21.6326Q26.2648 21.4808 26.4105 21.3715Q26.5623 21.2561 26.7506 21.1954Q26.9388 21.1286 27.1635 21.1286L27.1878 21.1286L27.2121 21.1529ZM29.7018 36.0304L29.6775 36.0547L29.6532 36.0547Q29.4285 36.0547 29.2403 35.994Q29.052 35.9332 28.9002 35.8239Q28.7545 35.7086 28.6391 35.5628Q28.5298 35.411 28.4691 35.2228Q28.4083 35.0345 28.4083 34.8098L28.4083 34.7855L28.4326 34.7613L29.7018 34.7613L29.7018 36.0304ZM29.6046 36.0304L29.6046 34.7613L30.8738 34.7613L30.898 34.7855L30.898 34.8098Q30.898 35.0345 30.8312 35.2228Q30.7705 35.411 30.6551 35.5628Q30.5458 35.7086 30.394 35.8239Q30.2483 35.9332 30.06 35.994Q29.8779 36.0547 29.6532 36.0547L29.6289 36.0547L29.6046 36.0304ZM29.6046 33.5893L29.6289 33.565L29.6532 33.565Q29.8779 33.565 30.06 33.6318Q30.2483 33.6925 30.394 33.8079Q30.5458 33.9172 30.6551 34.069Q30.7705 34.2147 30.8312 34.403Q30.898 34.5852 30.898 34.8098L30.898 34.8341L30.8738 34.8584L29.6046 34.8584L29.6046 33.5893ZM29.7018 33.5893L29.7018 34.8584L28.4326 34.8584L28.4083 34.8341L28.4083 34.8098Q28.4083 34.5852 28.4691 34.403Q28.5298 34.2147 28.6391 34.069Q28.7545 33.9172 28.9002 33.8079Q29.052 33.6925 29.2403 33.6318Q29.4285 33.565 29.6532 33.565L29.6775 33.565L29.7018 33.5893ZM29.7018 31.0571L29.6775 31.0814L29.6532 31.0814Q29.4285 31.0814 29.2403 31.0206Q29.052 30.9599 28.9002 30.8506Q28.7545 30.7352 28.6391 30.5895Q28.5298 30.4377 28.4691 30.2494Q28.4083 30.0612 28.4083 29.8365L28.4083 29.8122L28.4326 29.7879L29.7018 29.7879L29.7018 31.0571ZM29.6046 31.0571L29.6046 29.7879L30.8738 29.7879L30.898 29.8122L30.898 29.8365Q30.898 30.0612 30.8312 30.2494Q30.7705 30.4377 30.6551 30.5895Q30.5458 30.7352 30.394 30.8506Q30.2483 30.9599 30.06 31.0206Q29.8779 31.0814 29.6532 31.0814L29.6289 31.0814L29.6046 31.0571ZM29.6046 28.6159L29.6289 28.5917L29.6532 28.5917Q29.8779 28.5917 30.06 28.6585Q30.2483 28.7192 30.394 28.8346Q30.5458 28.9439 30.6551 29.0957Q30.7705 29.2414 30.8312 29.4297Q30.898 29.6118 30.898 29.8365L30.898 29.8608L30.8738 29.8851L29.6046 29.8851L29.6046 28.6159ZM29.7018 28.6159L29.7018 29.8851L28.4326 29.8851L28.4083 29.8608L28.4083 29.8365Q28.4083 29.6118 28.4691 29.4297Q28.5298 29.2414 28.6391 29.0957Q28.7545 28.9439 28.9002 28.8346Q29.052 28.7192 29.2403 28.6585Q29.4285 28.5917 29.6532 28.5917L29.6775 28.5917L29.7018 28.6159ZM29.7018 23.594L29.6775 23.6183L29.6532 23.6183Q29.4285 23.6183 29.2403 23.5576Q29.052 23.4969 28.9002 23.3876Q28.7545 23.2722 28.6391 23.1265Q28.5298 22.9746 28.4691 22.7864Q28.4083 22.5982 28.4083 22.3735L28.4083 22.3492L28.4326 22.3249L29.7018 22.3249L29.7018 23.594ZM29.6046 23.594L29.6046 22.3249L30.8738 22.3249L30.898 22.3492L30.898 22.3735Q30.898 22.5982 30.8312 22.7864Q30.7705 22.9746 30.6551 23.1265Q30.5458 23.2722 30.394 23.3876Q30.2483 23.4969 30.06 23.5576Q29.8779 23.6183 29.6532 23.6183L29.6289 23.6183L29.6046 23.594ZM29.6046 21.1529L29.6289 21.1286L29.6532 21.1286Q29.8779 21.1286 30.06 21.1954Q30.2483 21.2561 30.394 21.3715Q30.5458 21.4808 30.6551 21.6326Q30.7705 21.7784 30.8312 21.9666Q30.898 22.1488 30.898 22.3735L30.898 22.3978L30.8738 22.4221L29.6046 22.4221L29.6046 21.1529ZM29.7018 21.1529L29.7018 22.4221L28.4326 22.4221L28.4083 22.3978L28.4083 22.3735Q28.4083 22.1488 28.4691 21.9666Q28.5298 21.7784 28.6391 21.6326Q28.7545 21.4808 28.9002 21.3715Q29.052 21.2561 29.2403 21.1954Q29.4285 21.1286 29.6532 21.1286L29.6775 21.1286L29.7018 21.1529ZM32.1854 33.5407L32.1611 33.565L32.1368 33.565Q31.9121 33.565 31.7239 33.5043Q31.5357 33.4435 31.3838 33.3342Q31.2381 33.2189 31.1227 33.0731Q31.0134 32.9213 30.9527 32.7331Q30.892 32.5448 30.892 32.3201L30.892 32.2958L30.9163 32.2716L32.1854 32.2716L32.1854 33.5407ZM32.0882 33.5407L32.0882 32.2716L33.3574 32.2716L33.3817 32.2958L33.3817 32.3201Q33.3817 32.5448 33.3149 32.7331Q33.2542 32.9213 33.1388 33.0731Q33.0295 33.2189 32.8777 33.3342Q32.7319 33.4435 32.5437 33.5043Q32.3615 33.565 32.1368 33.565L32.1125 33.565L32.0882 33.5407ZM32.0882 31.0996L32.1125 31.0753L32.1368 31.0753Q32.3615 31.0753 32.5437 31.1421Q32.7319 31.2028 32.8777 31.3182Q33.0295 31.4275 33.1388 31.5793Q33.2542 31.725 33.3149 31.9133Q33.3817 32.0955 33.3817 32.3201L33.3817 32.3444L33.3574 32.3687L32.0882 32.3687L32.0882 31.0996ZM32.1854 31.0996L32.1854 32.3687L30.9163 32.3687L30.892 32.3444L30.892 32.3201Q30.892 32.0955 30.9527 31.9133Q31.0134 31.725 31.1227 31.5793Q31.2381 31.4275 31.3838 31.3182Q31.5357 31.2028 31.7239 31.1421Q31.9121 31.0753 32.1368 31.0753L32.1611 31.0753L32.1854 31.0996ZM32.1854 31.0571L32.1611 31.0814L32.1368 31.0814Q31.9121 31.0814 31.7239 31.0206Q31.5357 30.9599 31.3838 30.8506Q31.2381 30.7352 31.1227 30.5895Q31.0134 30.4377 30.9527 30.2494Q30.892 30.0612 30.892 29.8365L30.892 29.8122L30.9163 29.7879L32.1854 29.7879L32.1854 31.0571ZM32.0882 31.0571L32.0882 29.7879L33.3574 29.7879L33.3817 29.8122L33.3817 29.8365Q33.3817 30.0612 33.3149 30.2494Q33.2542 30.4377 33.1388 30.5895Q33.0295 30.7352 32.8777 30.8506Q32.7319 30.9599 32.5437 31.0206Q32.3615 31.0814 32.1368 31.0814L32.1125 31.0814L32.0882 31.0571ZM32.0882 28.6159L32.1125 28.5917L32.1368 28.5917Q32.3615 28.5917 32.5437 28.6585Q32.7319 28.7192 32.8777 28.8346Q33.0295 28.9439 33.1388 29.0957Q33.2542 29.2414 33.3149 29.4297Q33.3817 29.6118 33.3817 29.8365L33.3817 29.8608L33.3574 29.8851L32.0882 29.8851L32.0882 28.6159ZM32.1854 28.6159L32.1854 29.8851L30.9163 29.8851L30.892 29.8608L30.892 29.8365Q30.892 29.6118 30.9527 29.4297Q31.0134 29.2414 31.1227 29.0957Q31.2381 28.9439 31.3838 28.8346Q31.5357 28.7192 31.7239 28.6585Q31.9121 28.5917 32.1368 28.5917L32.1611 28.5917L32.1854 28.6159ZM32.1854 28.5674L32.1611 28.5917L32.1368 28.5917Q31.9121 28.5917 31.7239 28.5309Q31.5357 28.4702 31.3838 28.3609Q31.2381 28.2455 31.1227 28.0998Q31.0134 27.948 30.9527 27.7597Q30.892 27.5715 30.892 27.3468L30.892 27.3225L30.9163 27.2982L32.1854 27.2982L32.1854 28.5674ZM32.0882 28.5674L32.0882 27.2982L33.3574 27.2982L33.3817 27.3225L33.3817 27.3468Q33.3817 27.5715 33.3149 27.7597Q33.2542 27.948 33.1388 28.0998Q33.0295 28.2455 32.8777 28.3609Q32.7319 28.4702 32.5437 28.5309Q32.3615 28.5917 32.1368 28.5917L32.1125 28.5917L32.0882 28.5674ZM32.0882 26.1262L32.1125 26.102L32.1368 26.102Q32.3615 26.102 32.5437 26.1688Q32.7319 26.2295 32.8777 26.3449Q33.0295 26.4542 33.1388 26.606Q33.2542 26.7517 33.3149 26.94Q33.3817 27.1221 33.3817 27.3468L33.3817 27.3711L33.3574 27.3954L32.0882 27.3954L32.0882 26.1262ZM32.1854 26.1262L32.1854 27.3954L30.9163 27.3954L30.892 27.3711L30.892 27.3468Q30.892 27.1221 30.9527 26.94Q31.0134 26.7517 31.1227 26.606Q31.2381 26.4542 31.3838 26.3449Q31.5357 26.2295 31.7239 26.1688Q31.9121 26.102 32.1368 26.102L32.1611 26.102L32.1854 26.1262ZM32.1854 26.0837L32.1611 26.108L32.1368 26.108Q31.9121 26.108 31.7239 26.0473Q31.5357 25.9866 31.3838 25.8773Q31.2381 25.7619 31.1227 25.6162Q31.0134 25.4643 30.9527 25.2761Q30.892 25.0879 30.892 24.8632L30.892 24.8389L30.9163 24.8146L32.1854 24.8146L32.1854 26.0837ZM32.0882 26.0837L32.0882 24.8146L33.3574 24.8146L33.3817 24.8389L33.3817 24.8632Q33.3817 25.0879 33.3149 25.2761Q33.2542 25.4643 33.1388 25.6162Q33.0295 25.7619 32.8777 25.8773Q32.7319 25.9866 32.5437 26.0473Q32.3615 26.108 32.1368 26.108L32.1125 26.108L32.0882 26.0837ZM32.0882 23.6426L32.1125 23.6183L32.1368 23.6183Q32.3615 23.6183 32.5437 23.6851Q32.7319 23.7458 32.8777 23.8612Q33.0295 23.9705 33.1388 24.1223Q33.2542 24.2681 33.3149 24.4563Q33.3817 24.6385 33.3817 24.8632L33.3817 24.8875L33.3574 24.9118L32.0882 24.9118L32.0882 23.6426ZM32.1854 23.6426L32.1854 24.9118L30.9163 24.9118L30.892 24.8875L30.892 24.8632Q30.892 24.6385 30.9527 24.4563Q31.0134 24.2681 31.1227 24.1223Q31.2381 23.9705 31.3838 23.8612Q31.5357 23.7458 31.7239 23.6851Q31.9121 23.6183 32.1368 23.6183L32.1611 23.6183L32.1854 23.6426ZM37.1624 33.5407L37.1381 33.565L37.1138 33.565Q36.8891 33.565 36.7009 33.5043Q36.5126 33.4435 36.3608 33.3342Q36.2151 33.2189 36.0997 33.0731Q35.9904 32.9213 35.9297 32.7331Q35.8689 32.5448 35.8689 32.3201L35.8689 32.2958L35.8932 32.2716L37.1624 32.2716L37.1624 33.5407ZM37.0652 33.5407L37.0652 32.2716L38.3344 32.2716L38.3587 32.2958L38.3587 32.3201Q38.3587 32.5448 38.2919 32.7331Q38.2311 32.9213 38.1158 33.0731Q38.0064 33.2189 37.8546 33.3342Q37.7089 33.4435 37.5207 33.5043Q37.3385 33.565 37.1138 33.565L37.0895 33.565L37.0652 33.5407ZM37.0652 31.0996L37.0895 31.0753L37.1138 31.0753Q37.3385 31.0753 37.5207 31.1421Q37.7089 31.2028 37.8546 31.3182Q38.0064 31.4275 38.1158 31.5793Q38.2311 31.725 38.2919 31.9133Q38.3587 32.0955 38.3587 32.3201L38.3587 32.3444L38.3344 32.3687L37.0652 32.3687L37.0652 31.0996ZM37.1624 31.0996L37.1624 32.3687L35.8932 32.3687L35.8689 32.3444L35.8689 32.3201Q35.8689 32.0955 35.9297 31.9133Q35.9904 31.725 36.0997 31.5793Q36.2151 31.4275 36.3608 31.3182Q36.5126 31.2028 36.7009 31.1421Q36.8891 31.0753 37.1138 31.0753L37.1381 31.0753L37.1624 31.0996ZM37.1624 28.5674L37.1381 28.5917L37.1138 28.5917Q36.8891 28.5917 36.7009 28.5309Q36.5126 28.4702 36.3608 28.3609Q36.2151 28.2455 36.0997 28.0998Q35.9904 27.948 35.9297 27.7597Q35.8689 27.5715 35.8689 27.3468L35.8689 27.3225L35.8932 27.2982L37.1624 27.2982L37.1624 28.5674ZM37.0652 28.5674L37.0652 27.2982L38.3344 27.2982L38.3587 27.3225L38.3587 27.3468Q38.3587 27.5715 38.2919 27.7597Q38.2311 27.948 38.1158 28.0998Q38.0064 28.2455 37.8546 28.3609Q37.7089 28.4702 37.5207 28.5309Q37.3385 28.5917 37.1138 28.5917L37.0895 28.5917L37.0652 28.5674ZM37.0652 26.1262L37.0895 26.102L37.1138 26.102Q37.3385 26.102 37.5207 26.1688Q37.7089 26.2295 37.8546 26.3449Q38.0064 26.4542 38.1158 26.606Q38.2311 26.7517 38.2919 26.94Q38.3587 27.1221 38.3587 27.3468L38.3587 27.3711L38.3344 27.3954L37.0652 27.3954L37.0652 26.1262ZM37.1624 26.1262L37.1624 27.3954L35.8932 27.3954L35.8689 27.3711L35.8689 27.3468Q35.8689 27.1221 35.9297 26.94Q35.9904 26.7517 36.0997 26.606Q36.2151 26.4542 36.3608 26.3449Q36.5126 26.2295 36.7009 26.1688Q36.8891 26.102 37.1138 26.102L37.1381 26.102L37.1624 26.1262ZM37.1624 26.0837L37.1381 26.108L37.1138 26.108Q36.8891 26.108 36.7009 26.0473Q36.5126 25.9866 36.3608 25.8773Q36.2151 25.7619 36.0997 25.6162Q35.9904 25.4643 35.9297 25.2761Q35.8689 25.0879 35.8689 24.8632L35.8689 24.8389L35.8932 24.8146L37.1624 24.8146L37.1624 26.0837ZM37.0652 26.0837L37.0652 24.8146L38.3344 24.8146L38.3587 24.8389L38.3587 24.8632Q38.3587 25.0879 38.2919 25.2761Q38.2311 25.4643 38.1158 25.6162Q38.0064 25.7619 37.8546 25.8773Q37.7089 25.9866 37.5207 26.0473Q37.3385 26.108 37.1138 26.108L37.0895 26.108L37.0652 26.0837ZM37.0652 23.6426L37.0895 23.6183L37.1138 23.6183Q37.3385 23.6183 37.5207 23.6851Q37.7089 23.7458 37.8546 23.8612Q38.0064 23.9705 38.1158 24.1223Q38.2311 24.2681 38.2919 24.4563Q38.3587 24.6385 38.3587 24.8632L38.3587 24.8875L38.3344 24.9118L37.0652 24.9118L37.0652 23.6426ZM37.1624 23.6426L37.1624 24.9118L35.8932 24.9118L35.8689 24.8875L35.8689 24.8632Q35.8689 24.6385 35.9297 24.4563Q35.9904 24.2681 36.0997 24.1223Q36.2151 23.9705 36.3608 23.8612Q36.5126 23.7458 36.7009 23.6851Q36.8891 23.6183 37.1138 23.6183L37.1381 23.6183L37.1624 23.6426ZM37.1624 23.594L37.1381 23.6183L37.1138 23.6183Q36.8891 23.6183 36.7009 23.5576Q36.5126 23.4969 36.3608 23.3876Q36.2151 23.2722 36.0997 23.1265Q35.9904 22.9746 35.9297 22.7864Q35.8689 22.5982 35.8689 22.3735L35.8689 22.3492L35.8932 22.3249L37.1624 22.3249L37.1624 23.594ZM37.0652 23.594L37.0652 22.3249L38.3344 22.3249L38.3587 22.3492L38.3587 22.3735Q38.3587 22.5982 38.2919 22.7864Q38.2311 22.9746 38.1158 23.1265Q38.0064 23.2722 37.8546 23.3876Q37.7089 23.4969 37.5207 23.5576Q37.3385 23.6183 37.1138 23.6183L37.0895 23.6183L37.0652 23.594ZM37.0652 21.1529L37.0895 21.1286L37.1138 21.1286Q37.3385 21.1286 37.5207 21.1954Q37.7089 21.2561 37.8546 21.3715Q38.0064 21.4808 38.1158 21.6326Q38.2311 21.7784 38.2919 21.9666Q38.3587 22.1488 38.3587 22.3735L38.3587 22.3978L38.3344 22.4221L37.0652 22.4221L37.0652 21.1529ZM37.1624 21.1529L37.1624 22.4221L35.8932 22.4221L35.8689 22.3978L35.8689 22.3735Q35.8689 22.1488 35.9297 21.9666Q35.9904 21.7784 36.0997 21.6326Q36.2151 21.4808 36.3608 21.3715Q36.5126 21.2561 36.7009 21.1954Q36.8891 21.1286 37.1138 21.1286L37.1381 21.1286L37.1624 21.1529ZM39.6521 36.0304L39.6278 36.0547L39.6035 36.0547Q39.3788 36.0547 39.1906 35.994Q39.0023 35.9332 38.8505 35.8239Q38.7048 35.7086 38.5894 35.5628Q38.4801 35.411 38.4194 35.2228Q38.3587 35.0345 38.3587 34.8098L38.3587 34.7855L38.3829 34.7613L39.6521 34.7613L39.6521 36.0304ZM39.5549 36.0304L39.5549 34.7613L40.8241 34.7613L40.8484 34.7855L40.8484 34.8098Q40.8484 35.0345 40.7816 35.2228Q40.7208 35.411 40.6055 35.5628Q40.4961 35.7086 40.3443 35.8239Q40.1986 35.9332 40.0104 35.994Q39.8282 36.0547 39.6035 36.0547L39.5792 36.0547L39.5549 36.0304ZM39.5549 33.5893L39.5792 33.565L39.6035 33.565Q39.8282 33.565 40.0104 33.6318Q40.1986 33.6925 40.3443 33.8079Q40.4961 33.9172 40.6055 34.069Q40.7208 34.2147 40.7816 34.403Q40.8484 34.5852 40.8484 34.8098L40.8484 34.8341L40.8241 34.8584L39.5549 34.8584L39.5549 33.5893ZM39.6521 33.5893L39.6521 34.8584L38.3829 34.8584L38.3587 34.8341L38.3587 34.8098Q38.3587 34.5852 38.4194 34.403Q38.4801 34.2147 38.5894 34.069Q38.7048 33.9172 38.8505 33.8079Q39.0023 33.6925 39.1906 33.6318Q39.3788 33.565 39.6035 33.565L39.6278 33.565L39.6521 33.5893ZM39.6521 28.5674L39.6278 28.5917L39.6035 28.5917Q39.3788 28.5917 39.1906 28.5309Q39.0023 28.4702 38.8505 28.3609Q38.7048 28.2455 38.5894 28.0998Q38.4801 27.948 38.4194 27.7597Q38.3587 27.5715 38.3587 27.3468L38.3587 27.3225L38.3829 27.2982L39.6521 27.2982L39.6521 28.5674ZM39.5549 28.5674L39.5549 27.2982L40.8241 27.2982L40.8484 27.3225L40.8484 27.3468Q40.8484 27.5715 40.7816 27.7597Q40.7208 27.948 40.6055 28.0998Q40.4961 28.2455 40.3443 28.3609Q40.1986 28.4702 40.0104 28.5309Q39.8282 28.5917 39.6035 28.5917L39.5792 28.5917L39.5549 28.5674ZM39.5549 26.1262L39.5792 26.102L39.6035 26.102Q39.8282 26.102 40.0104 26.1688Q40.1986 26.2295 40.3443 26.3449Q40.4961 26.4542 40.6055 26.606Q40.7208 26.7517 40.7816 26.94Q40.8484 27.1221 40.8484 27.3468L40.8484 27.3711L40.8241 27.3954L39.5549 27.3954L39.5549 26.1262ZM39.6521 26.1262L39.6521 27.3954L38.3829 27.3954L38.3587 27.3711L38.3587 27.3468Q38.3587 27.1221 38.4194 26.94Q38.4801 26.7517 38.5894 26.606Q38.7048 26.4542 38.8505 26.3449Q39.0023 26.2295 39.1906 26.1688Q39.3788 26.102 39.6035 26.102L39.6278 26.102L39.6521 26.1262ZM39.6521 23.594L39.6278 23.6183L39.6035 23.6183Q39.3788 23.6183 39.1906 23.5576Q39.0023 23.4969 38.8505 23.3876Q38.7048 23.2722 38.5894 23.1265Q38.4801 22.9746 38.4194 22.7864Q38.3587 22.5982 38.3587 22.3735L38.3587 22.3492L38.3829 22.3249L39.6521 22.3249L39.6521 23.594ZM39.5549 23.594L39.5549 22.3249L40.8241 22.3249L40.8484 22.3492L40.8484 22.3735Q40.8484 22.5982 40.7816 22.7864Q40.7208 22.9746 40.6055 23.1265Q40.4961 23.2722 40.3443 23.3876Q40.1986 23.4969 40.0104 23.5576Q39.8282 23.6183 39.6035 23.6183L39.5792 23.6183L39.5549 23.594ZM39.5549 21.1529L39.5792 21.1286L39.6035 21.1286Q39.8282 21.1286 40.0104 21.1954Q40.1986 21.2561 40.3443 21.3715Q40.4961 21.4808 40.6055 21.6326Q40.7208 21.7784 40.7816 21.9666Q40.8484 22.1488 40.8484 22.3735L40.8484 22.3978L40.8241 22.4221L39.5549 22.4221L39.5549 21.1529ZM39.6521 21.1529L39.6521 22.4221L38.3829 22.4221L38.3587 22.3978L38.3587 22.3735Q38.3587 22.1488 38.4194 21.9666Q38.4801 21.7784 38.5894 21.6326Q38.7048 21.4808 38.8505 21.3715Q39.0023 21.2561 39.1906 21.1954Q39.3788 21.1286 39.6035 21.1286L39.6278 21.1286L39.6521 21.1529ZM42.1357 36.0304L42.1114 36.0547L42.0871 36.0547Q41.8624 36.0547 41.6742 35.994Q41.486 35.9332 41.3341 35.8239Q41.1884 35.7086 41.073 35.5628Q40.9637 35.411 40.903 35.2228Q40.8423 35.0345 40.8423 34.8098L40.8423 34.7855L40.8666 34.7613L42.1357 34.7613L42.1357 36.0304ZM42.0386 36.0304L42.0386 34.7613L43.3077 34.7613L43.332 34.7855L43.332 34.8098Q43.332 35.0345 43.2652 35.2228Q43.2045 35.411 43.0891 35.5628Q42.9798 35.7086 42.828 35.8239Q42.6822 35.9332 42.494 35.994Q42.3118 36.0547 42.0871 36.0547L42.0628 36.0547L42.0386 36.0304ZM42.0386 33.5893L42.0628 33.565L42.0871 33.565Q42.3118 33.565 42.494 33.6318Q42.6822 33.6925 42.828 33.8079Q42.9798 33.9172 43.0891 34.069Q43.2045 34.2147 43.2652 34.403Q43.332 34.5852 43.332 34.8098L43.332 34.8341L43.3077 34.8584L42.0386 34.8584L42.0386 33.5893ZM42.1357 33.5893L42.1357 34.8584L40.8666 34.8584L40.8423 34.8341L40.8423 34.8098Q40.8423 34.5852 40.903 34.403Q40.9637 34.2147 41.073 34.069Q41.1884 33.9172 41.3341 33.8079Q41.486 33.6925 41.6742 33.6318Q41.8624 33.565 42.0871 33.565L42.1114 33.565L42.1357 33.5893ZM42.1357 28.5674L42.1114 28.5917L42.0871 28.5917Q41.8624 28.5917 41.6742 28.5309Q41.486 28.4702 41.3341 28.3609Q41.1884 28.2455 41.073 28.0998Q40.9637 27.948 40.903 27.7597Q40.8423 27.5715 40.8423 27.3468L40.8423 27.3225L40.8666 27.2982L42.1357 27.2982L42.1357 28.5674ZM42.0386 28.5674L42.0386 27.2982L43.3077 27.2982L43.332 27.3225L43.332 27.3468Q43.332 27.5715 43.2652 27.7597Q43.2045 27.948 43.0891 28.0998Q42.9798 28.2455 42.828 28.3609Q42.6822 28.4702 42.494 28.5309Q42.3118 28.5917 42.0871 28.5917L42.0628 28.5917L42.0386 28.5674ZM42.0386 26.1262L42.0628 26.102L42.0871 26.102Q42.3118 26.102 42.494 26.1688Q42.6822 26.2295 42.828 26.3449Q42.9798 26.4542 43.0891 26.606Q43.2045 26.7517 43.2652 26.94Q43.332 27.1221 43.332 27.3468L43.332 27.3711L43.3077 27.3954L42.0386 27.3954L42.0386 26.1262ZM42.1357 26.1262L42.1357 27.3954L40.8666 27.3954L40.8423 27.3711L40.8423 27.3468Q40.8423 27.1221 40.903 26.94Q40.9637 26.7517 41.073 26.606Q41.1884 26.4542 41.3341 26.3449Q41.486 26.2295 41.6742 26.1688Q41.8624 26.102 42.0871 26.102L42.1114 26.102L42.1357 26.1262ZM42.1357 23.594L42.1114 23.6183L42.0871 23.6183Q41.8624 23.6183 41.6742 23.5576Q41.486 23.4969 41.3341 23.3876Q41.1884 23.2722 41.073 23.1265Q40.9637 22.9746 40.903 22.7864Q40.8423 22.5982 40.8423 22.3735L40.8423 22.3492L40.8666 22.3249L42.1357 22.3249L42.1357 23.594ZM42.0386 23.594L42.0386 22.3249L43.3077 22.3249L43.332 22.3492L43.332 22.3735Q43.332 22.5982 43.2652 22.7864Q43.2045 22.9746 43.0891 23.1265Q42.9798 23.2722 42.828 23.3876Q42.6822 23.4969 42.494 23.5576Q42.3118 23.6183 42.0871 23.6183L42.0628 23.6183L42.0386 23.594ZM42.0386 21.1529L42.0628 21.1286L42.0871 21.1286Q42.3118 21.1286 42.494 21.1954Q42.6822 21.2561 42.828 21.3715Q42.9798 21.4808 43.0891 21.6326Q43.2045 21.7784 43.2652 21.9666Q43.332 22.1488 43.332 22.3735L43.332 22.3978L43.3077 22.4221L42.0386 22.4221L42.0386 21.1529ZM42.1357 21.1529L42.1357 22.4221L40.8666 22.4221L40.8423 22.3978L40.8423 22.3735Q40.8423 22.1488 40.903 21.9666Q40.9637 21.7784 41.073 21.6326Q41.1884 21.4808 41.3341 21.3715Q41.486 21.2561 41.6742 21.1954Q41.8624 21.1286 42.0871 21.1286L42.1114 21.1286L42.1357 21.1529ZM44.6254 36.0304L44.6011 36.0547L44.5768 36.0547Q44.3521 36.0547 44.1639 35.994Q43.9757 35.9332 43.8238 35.8239Q43.6781 35.7086 43.5627 35.5628Q43.4534 35.411 43.3927 35.2228Q43.332 35.0345 43.332 34.8098L43.332 34.7855L43.3563 34.7613L44.6254 34.7613L44.6254 36.0304ZM44.5283 36.0304L44.5283 34.7613L45.7974 34.7613L45.8217 34.7855L45.8217 34.8098Q45.8217 35.0345 45.7549 35.2228Q45.6942 35.411 45.5788 35.5628Q45.4695 35.7086 45.3177 35.8239Q45.1719 35.9332 44.9837 35.994Q44.8015 36.0547 44.5768 36.0547L44.5525 36.0547L44.5283 36.0304ZM44.5283 33.5893L44.5525 33.565L44.5768 33.565Q44.8015 33.565 44.9837 33.6318Q45.1719 33.6925 45.3177 33.8079Q45.4695 33.9172 45.5788 34.069Q45.6942 34.2147 45.7549 34.403Q45.8217 34.5852 45.8217 34.8098L45.8217 34.8341L45.7974 34.8584L44.5283 34.8584L44.5283 33.5893ZM44.6254 33.5893L44.6254 34.8584L43.3563 34.8584L43.332 34.8341L43.332 34.8098Q43.332 34.5852 43.3927 34.403Q43.4534 34.2147 43.5627 34.069Q43.6781 33.9172 43.8238 33.8079Q43.9757 33.6925 44.1639 33.6318Q44.3521 33.565 44.5768 33.565L44.6011 33.565L44.6254 33.5893ZM44.6254 28.5674L44.6011 28.5917L44.5768 28.5917Q44.3521 28.5917 44.1639 28.5309Q43.9757 28.4702 43.8238 28.3609Q43.6781 28.2455 43.5627 28.0998Q43.4534 27.948 43.3927 27.7597Q43.332 27.5715 43.332 27.3468L43.332 27.3225L43.3563 27.2982L44.6254 27.2982L44.6254 28.5674ZM44.5283 28.5674L44.5283 27.2982L45.7974 27.2982L45.8217 27.3225L45.8217 27.3468Q45.8217 27.5715 45.7549 27.7597Q45.6942 27.948 45.5788 28.0998Q45.4695 28.2455 45.3177 28.3609Q45.1719 28.4702 44.9837 28.5309Q44.8015 28.5917 44.5768 28.5917L44.5525 28.5917L44.5283 28.5674ZM44.5283 26.1262L44.5525 26.102L44.5768 26.102Q44.8015 26.102 44.9837 26.1688Q45.1719 26.2295 45.3177 26.3449Q45.4695 26.4542 45.5788 26.606Q45.6942 26.7517 45.7549 26.94Q45.8217 27.1221 45.8217 27.3468L45.8217 27.3711L45.7974 27.3954L44.5283 27.3954L44.5283 26.1262ZM44.6254 26.1262L44.6254 27.3954L43.3563 27.3954L43.332 27.3711L43.332 27.3468Q43.332 27.1221 43.3927 26.94Q43.4534 26.7517 43.5627 26.606Q43.6781 26.4542 43.8238 26.3449Q43.9757 26.2295 44.1639 26.1688Q44.3521 26.102 44.5768 26.102L44.6011 26.102L44.6254 26.1262ZM44.6254 23.594L44.6011 23.6183L44.5768 23.6183Q44.3521 23.6183 44.1639 23.5576Q43.9757 23.4969 43.8238 23.3876Q43.6781 23.2722 43.5627 23.1265Q43.4534 22.9746 43.3927 22.7864Q43.332 22.5982 43.332 22.3735L43.332 22.3492L43.3563 22.3249L44.6254 22.3249L44.6254 23.594ZM44.5283 23.594L44.5283 22.3249L45.7974 22.3249L45.8217 22.3492L45.8217 22.3735Q45.8217 22.5982 45.7549 22.7864Q45.6942 22.9746 45.5788 23.1265Q45.4695 23.2722 45.3177 23.3876Q45.1719 23.4969 44.9837 23.5576Q44.8015 23.6183 44.5768 23.6183L44.5525 23.6183L44.5283 23.594ZM44.5283 21.1529L44.5525 21.1286L44.5768 21.1286Q44.8015 21.1286 44.9837 21.1954Q45.1719 21.2561 45.3177 21.3715Q45.4695 21.4808 45.5788 21.6326Q45.6942 21.7784 45.7549 21.9666Q45.8217 22.1488 45.8217 22.3735L45.8217 22.3978L45.7974 22.4221L44.5283 22.4221L44.5283 21.1529ZM44.6254 21.1529L44.6254 22.4221L43.3563 22.4221L43.332 22.3978L43.332 22.3735Q43.332 22.1488 43.3927 21.9666Q43.4534 21.7784 43.5627 21.6326Q43.6781 21.4808 43.8238 21.3715Q43.9757 21.2561 44.1639 21.1954Q44.3521 21.1286 44.5768 21.1286L44.6011 21.1286L44.6254 21.1529ZM47.109 33.5407L47.0848 33.565L47.0605 33.565Q46.8358 33.565 46.6475 33.5043Q46.4593 33.4435 46.3075 33.3342Q46.1617 33.2189 46.0464 33.0731Q45.9371 32.9213 45.8763 32.7331Q45.8156 32.5448 45.8156 32.3201L45.8156 32.2958L45.8399 32.2716L47.109 32.2716L47.109 33.5407ZM47.0119 33.5407L47.0119 32.2716L48.281 32.2716L48.3053 32.2958L48.3053 32.3201Q48.3053 32.5448 48.2385 32.7331Q48.1778 32.9213 48.0624 33.0731Q47.9531 33.2189 47.8013 33.3342Q47.6556 33.4435 47.4673 33.5043Q47.2851 33.565 47.0605 33.565L47.0362 33.565L47.0119 33.5407ZM47.0119 31.0996L47.0362 31.0753L47.0605 31.0753Q47.2851 31.0753 47.4673 31.1421Q47.6556 31.2028 47.8013 31.3182Q47.9531 31.4275 48.0624 31.5793Q48.1778 31.725 48.2385 31.9133Q48.3053 32.0955 48.3053 32.3201L48.3053 32.3444L48.281 32.3687L47.0119 32.3687L47.0119 31.0996ZM47.109 31.0996L47.109 32.3687L45.8399 32.3687L45.8156 32.3444L45.8156 32.3201Q45.8156 32.0955 45.8763 31.9133Q45.9371 31.725 46.0464 31.5793Q46.1617 31.4275 46.3075 31.3182Q46.4593 31.2028 46.6475 31.1421Q46.8358 31.0753 47.0605 31.0753L47.0848 31.0753L47.109 31.0996ZM47.109 31.0571L47.0848 31.0814L47.0605 31.0814Q46.8358 31.0814 46.6475 31.0206Q46.4593 30.9599 46.3075 30.8506Q46.1617 30.7352 46.0464 30.5895Q45.9371 30.4377 45.8763 30.2494Q45.8156 30.0612 45.8156 29.8365L45.8156 29.8122L45.8399 29.7879L47.109 29.7879L47.109 31.0571ZM47.0119 31.0571L47.0119 29.7879L48.281 29.7879L48.3053 29.8122L48.3053 29.8365Q48.3053 30.0612 48.2385 30.2494Q48.1778 30.4377 48.0624 30.5895Q47.9531 30.7352 47.8013 30.8506Q47.6556 30.9599 47.4673 31.0206Q47.2851 31.0814 47.0605 31.0814L47.0362 31.0814L47.0119 31.0571ZM47.0119 28.6159L47.0362 28.5917L47.0605 28.5917Q47.2851 28.5917 47.4673 28.6585Q47.6556 28.7192 47.8013 28.8346Q47.9531 28.9439 48.0624 29.0957Q48.1778 29.2414 48.2385 29.4297Q48.3053 29.6118 48.3053 29.8365L48.3053 29.8608L48.281 29.8851L47.0119 29.8851L47.0119 28.6159ZM47.109 28.6159L47.109 29.8851L45.8399 29.8851L45.8156 29.8608L45.8156 29.8365Q45.8156 29.6118 45.8763 29.4297Q45.9371 29.2414 46.0464 29.0957Q46.1617 28.9439 46.3075 28.8346Q46.4593 28.7192 46.6475 28.6585Q46.8358 28.5917 47.0605 28.5917L47.0848 28.5917L47.109 28.6159ZM47.109 23.594L47.0848 23.6183L47.0605 23.6183Q46.8358 23.6183 46.6475 23.5576Q46.4593 23.4969 46.3075 23.3876Q46.1617 23.2722 46.0464 23.1265Q45.9371 22.9746 45.8763 22.7864Q45.8156 22.5982 45.8156 22.3735L45.8156 22.3492L45.8399 22.3249L47.109 22.3249L47.109 23.594ZM47.0119 23.594L47.0119 22.3249L48.281 22.3249L48.3053 22.3492L48.3053 22.3735Q48.3053 22.5982 48.2385 22.7864Q48.1778 22.9746 48.0624 23.1265Q47.9531 23.2722 47.8013 23.3876Q47.6556 23.4969 47.4673 23.5576Q47.2851 23.6183 47.0605 23.6183L47.0362 23.6183L47.0119 23.594ZM47.0119 21.1529L47.0362 21.1286L47.0605 21.1286Q47.2851 21.1286 47.4673 21.1954Q47.6556 21.2561 47.8013 21.3715Q47.9531 21.4808 48.0624 21.6326Q48.1778 21.7784 48.2385 21.9666Q48.3053 22.1488 48.3053 22.3735L48.3053 22.3978L48.281 22.4221L47.0119 22.4221L47.0119 21.1529ZM47.109 21.1529L47.109 22.4221L45.8399 22.4221L45.8156 22.3978L45.8156 22.3735Q45.8156 22.1488 45.8763 21.9666Q45.9371 21.7784 46.0464 21.6326Q46.1617 21.4808 46.3075 21.3715Q46.4593 21.2561 46.6475 21.1954Q46.8358 21.1286 47.0605 21.1286L47.0848 21.1286L47.109 21.1529Z" opacity="0" fill="rgb(31,65,118)" fill-rule="nonzero" />
		</g>
		<rect id="矩形 451" width="53.672726" height="1.963636" x="9.163574" y="56.291016" fill="rgb(223,224,214)" />
		<rect id="矩形 461" width="2.618182" height="1.309091" x="32.727295" y="6.545898" fill="rgb(254,190,39)" />
		<rect id="矩形 462" width="2.618182" height="1.309091" x="35.345459" y="6.545898" fill="rgb(254,104,47)" />
		<rect id="矩形 463" width="2.618182" height="1.309091" x="37.963623" y="6.545898" fill="rgb(245,45,58)" />
		<rect id="矩形 450" width="13.745454" height="1.963636" x="37.963623" y="56.291016" fill="rgb(133,135,127)" />
		<circle id="椭圆 63" cx="55.3089676" cy="57.2728348" r="0.98181814" fill="rgb(133,135,127)" />
	</g>
</svg>
