<svg viewBox="0 0 152.532 51.0684" xmlns="http://www.w3.org/2000/svg" xmlns:xlink="http://www.w3.org/1999/xlink" width="152.531738" height="51.068359" fill="none" customFrame="#000000">
	<g id="组合 349">
		<circle id="椭圆 66" cx="46.8863983" cy="14.2071991" r="2.18571424" fill="rgb(123,117,103)" />
		<circle id="椭圆 67" cx="57.814621" cy="6.55680799" r="2.18571424" opacity="0.799999952" fill="rgb(123,117,103)" />
		<circle id="椭圆 68" cx="75.3009491" cy="2.18571424" r="2.18571424" opacity="0.599999964" fill="rgb(123,117,103)" />
		<circle id="椭圆 69" cx="92.7863007" cy="6.55680799" r="2.18571424" opacity="0.399999976" fill="rgb(123,117,103)" />
		<circle id="椭圆 70" cx="103.715012" cy="14.2071991" r="2.18571424" opacity="0.199999988" fill="rgb(123,117,103)" />
		<g id="组合 326">
			<g id="组合 337">
				<path id="矩形 461" d="M5.28919 7.93353L2.46794 3.7018C1.41304 2.11949 2.54733 0 4.44905 0L39.9965 0.000189793C41.8982 0.000189793 43.0324 2.11963 41.9776 3.70194L39.1564 7.93354C38.9826 8.19429 38.8898 8.50066 38.8898 8.81404L38.8898 26.6175C38.8898 28.3709 37.4685 29.7922 35.7152 29.7922L8.73047 29.7922C6.97714 29.7922 5.55579 28.3709 5.55579 26.6175L5.55579 8.81405C5.55579 8.50066 5.46303 8.19429 5.28919 7.93353Z" fill="rgb(243,238,227)" fill-rule="evenodd" transform="matrix(1,0,0,-1,108.086,47.9834)" />
				<path id="矩形 461" d="M38.8898 26.6175C38.8898 28.3709 37.4685 29.7922 35.7152 29.7922L8.73047 29.7922C6.97714 29.7922 5.55579 28.3709 5.55579 26.6175L5.55579 8.81405C5.55579 8.50066 5.46303 8.19429 5.28919 7.93353L2.46794 3.7018C1.41304 2.11949 2.54733 0 4.44905 0L39.9965 0.000189793C41.8982 0.000189793 43.0324 2.11963 41.9776 3.70194L39.1564 7.93354C38.9826 8.19429 38.8898 8.50066 38.8898 8.81404L38.8898 26.6175Z" fill-rule="evenodd" stroke="rgb(123,117,103)" stroke-width="1.092857" transform="matrix(1,0,0,-1,108.086,47.9834)" />
				<path id="" d="M124.372 45.4507L124.364 45.4585L124.357 45.4585Q124.285 45.4585 124.225 45.4391Q124.165 45.4197 124.116 45.3849Q124.07 45.348 124.033 45.3015Q123.998 45.2531 123.979 45.193Q123.959 45.133 123.959 45.0613L123.959 45.0535L123.967 45.0458L124.372 45.0458L124.372 45.4507ZM124.341 45.4507L124.341 45.0458L124.746 45.0458L124.754 45.0535L124.754 45.0613Q124.754 45.133 124.733 45.193Q124.713 45.2531 124.676 45.3015Q124.642 45.348 124.593 45.3849Q124.547 45.4197 124.487 45.4391Q124.428 45.4585 124.357 45.4585L124.349 45.4585L124.341 45.4507ZM124.341 44.6718L124.349 44.664L124.357 44.664Q124.428 44.664 124.487 44.6854Q124.547 44.7047 124.593 44.7416Q124.642 44.7764 124.676 44.8249Q124.713 44.8714 124.733 44.9314Q124.754 44.9896 124.754 45.0613L124.754 45.069L124.746 45.0768L124.341 45.0768L124.341 44.6718ZM124.372 44.6718L124.372 45.0768L123.967 45.0768L123.959 45.069L123.959 45.0613Q123.959 44.9896 123.979 44.9314Q123.998 44.8714 124.033 44.8249Q124.07 44.7764 124.116 44.7416Q124.165 44.7047 124.225 44.6854Q124.285 44.664 124.357 44.664L124.364 44.664L124.372 44.6718ZM124.372 44.6582L124.364 44.666L124.357 44.666Q124.285 44.666 124.225 44.6466Q124.165 44.6272 124.116 44.5924Q124.07 44.5555 124.033 44.509Q123.998 44.4606 123.979 44.4005Q123.959 44.3405 123.959 44.2688L123.959 44.261L123.967 44.2533L124.372 44.2533L124.372 44.6582ZM124.341 44.6582L124.341 44.2533L124.746 44.2533L124.754 44.261L124.754 44.2688Q124.754 44.3405 124.733 44.4005Q124.713 44.4606 124.676 44.509Q124.642 44.5555 124.593 44.5924Q124.547 44.6272 124.487 44.6466Q124.428 44.666 124.357 44.666L124.349 44.666L124.341 44.6582ZM124.341 43.8793L124.349 43.8715L124.357 43.8715Q124.428 43.8715 124.487 43.8929Q124.547 43.9122 124.593 43.949Q124.642 43.9839 124.676 44.0324Q124.713 44.0789 124.733 44.1389Q124.754 44.1971 124.754 44.2688L124.754 44.2765L124.746 44.2843L124.341 44.2843L124.341 43.8793ZM124.372 43.8793L124.372 44.2843L123.967 44.2843L123.959 44.2765L123.959 44.2688Q123.959 44.1971 123.979 44.1389Q123.998 44.0789 124.033 44.0324Q124.07 43.9839 124.116 43.949Q124.165 43.9122 124.225 43.8929Q124.285 43.8715 124.357 43.8715L124.364 43.8715L124.372 43.8793ZM124.372 43.8638L124.364 43.8715L124.357 43.8715Q124.285 43.8715 124.225 43.8522Q124.165 43.8328 124.116 43.7979Q124.07 43.7611 124.033 43.7146Q123.998 43.6661 123.979 43.6061Q123.959 43.546 123.959 43.4743L123.959 43.4666L123.967 43.4588L124.372 43.4588L124.372 43.8638ZM124.341 43.8638L124.341 43.4588L124.746 43.4588L124.754 43.4666L124.754 43.4743Q124.754 43.546 124.733 43.6061Q124.713 43.6661 124.676 43.7146Q124.642 43.7611 124.593 43.7979Q124.547 43.8328 124.487 43.8522Q124.428 43.8715 124.357 43.8715L124.349 43.8715L124.341 43.8638ZM124.341 43.0848L124.349 43.0771L124.357 43.0771Q124.428 43.0771 124.487 43.0984Q124.547 43.1178 124.593 43.1546Q124.642 43.1895 124.676 43.2379Q124.713 43.2844 124.733 43.3445Q124.754 43.4026 124.754 43.4743L124.754 43.4821L124.746 43.4898L124.341 43.4898L124.341 43.0848ZM124.372 43.0848L124.372 43.4898L123.967 43.4898L123.959 43.4821L123.959 43.4743Q123.959 43.4026 123.979 43.3445Q123.998 43.2844 124.033 43.2379Q124.07 43.1895 124.116 43.1546Q124.165 43.1178 124.225 43.0984Q124.285 43.0771 124.357 43.0771L124.364 43.0771L124.372 43.0848ZM124.372 43.0713L124.364 43.079L124.357 43.079Q124.285 43.079 124.225 43.0597Q124.165 43.0403 124.116 43.0054Q124.07 42.9686 124.033 42.9221Q123.998 42.8736 123.979 42.8136Q123.959 42.7535 123.959 42.6818L123.959 42.6741L123.967 42.6663L124.372 42.6663L124.372 43.0713ZM124.341 43.0713L124.341 42.6663L124.746 42.6663L124.754 42.6741L124.754 42.6818Q124.754 42.7535 124.733 42.8136Q124.713 42.8736 124.676 42.9221Q124.642 42.9686 124.593 43.0054Q124.547 43.0403 124.487 43.0597Q124.428 43.079 124.357 43.079L124.349 43.079L124.341 43.0713ZM124.341 42.2923L124.349 42.2846L124.357 42.2846Q124.428 42.2846 124.487 42.3059Q124.547 42.3253 124.593 42.3621Q124.642 42.397 124.676 42.4454Q124.713 42.4919 124.733 42.552Q124.754 42.6101 124.754 42.6818L124.754 42.6896L124.746 42.6973L124.341 42.6973L124.341 42.2923ZM124.372 42.2923L124.372 42.6973L123.967 42.6973L123.959 42.6896L123.959 42.6818Q123.959 42.6101 123.979 42.552Q123.998 42.4919 124.033 42.4454Q124.07 42.397 124.116 42.3621Q124.165 42.3253 124.225 42.3059Q124.285 42.2846 124.357 42.2846L124.364 42.2846L124.372 42.2923ZM125.167 46.2452L125.159 46.2529L125.151 46.2529Q125.079 46.2529 125.019 46.2336Q124.959 46.2142 124.911 46.1793Q124.864 46.1425 124.828 46.096Q124.793 46.0475 124.773 45.9875Q124.754 45.9274 124.754 45.8557L124.754 45.848L124.762 45.8402L125.167 45.8402L125.167 46.2452ZM125.136 46.2452L125.136 45.8402L125.541 45.8402L125.548 45.848L125.548 45.8557Q125.548 45.9274 125.527 45.9875Q125.508 46.0475 125.471 46.096Q125.436 46.1425 125.388 46.1793Q125.341 46.2142 125.281 46.2336Q125.223 46.2529 125.151 46.2529L125.143 46.2529L125.136 46.2452ZM125.136 45.4662L125.143 45.4585L125.151 45.4585Q125.223 45.4585 125.281 45.4798Q125.341 45.4992 125.388 45.536Q125.436 45.5709 125.471 45.6193Q125.508 45.6658 125.527 45.7259Q125.548 45.784 125.548 45.8557L125.548 45.8635L125.541 45.8712L125.136 45.8712L125.136 45.4662ZM125.167 45.4662L125.167 45.8712L124.762 45.8712L124.754 45.8635L124.754 45.8557Q124.754 45.784 124.773 45.7259Q124.793 45.6658 124.828 45.6193Q124.864 45.5709 124.911 45.536Q124.959 45.4992 125.019 45.4798Q125.079 45.4585 125.151 45.4585L125.159 45.4585L125.167 45.4662ZM125.167 42.2768L125.159 42.2846L125.151 42.2846Q125.079 42.2846 125.019 42.2652Q124.959 42.2458 124.911 42.211Q124.864 42.1741 124.828 42.1276Q124.793 42.0792 124.773 42.0191Q124.754 41.9591 124.754 41.8874L124.754 41.8796L124.762 41.8719L125.167 41.8719L125.167 42.2768ZM125.136 42.2768L125.136 41.8719L125.541 41.8719L125.548 41.8796L125.548 41.8874Q125.548 41.9591 125.527 42.0191Q125.508 42.0792 125.471 42.1276Q125.436 42.1741 125.388 42.211Q125.341 42.2458 125.281 42.2652Q125.223 42.2846 125.151 42.2846L125.143 42.2846L125.136 42.2768ZM125.136 41.4979L125.143 41.4901L125.151 41.4901Q125.223 41.4901 125.281 41.5115Q125.341 41.5308 125.388 41.5677Q125.436 41.6025 125.471 41.651Q125.508 41.6975 125.527 41.7575Q125.548 41.8157 125.548 41.8874L125.548 41.8951L125.541 41.9029L125.136 41.9029L125.136 41.4979ZM125.167 41.4979L125.167 41.9029L124.762 41.9029L124.754 41.8951L124.754 41.8874Q124.754 41.8157 124.773 41.7575Q124.793 41.6975 124.828 41.651Q124.864 41.6025 124.911 41.5677Q124.959 41.5308 125.019 41.5115Q125.079 41.4901 125.151 41.4901L125.159 41.4901L125.167 41.4979ZM125.959 46.2452L125.951 46.2529L125.944 46.2529Q125.872 46.2529 125.812 46.2336Q125.752 46.2142 125.703 46.1793Q125.657 46.1425 125.62 46.096Q125.585 46.0475 125.566 45.9875Q125.546 45.9274 125.546 45.8557L125.546 45.848L125.554 45.8402L125.959 45.8402L125.959 46.2452ZM125.928 46.2452L125.928 45.8402L126.333 45.8402L126.341 45.848L126.341 45.8557Q126.341 45.9274 126.32 45.9875Q126.3 46.0475 126.263 46.096Q126.228 46.1425 126.18 46.1793Q126.134 46.2142 126.073 46.2336Q126.015 46.2529 125.944 46.2529L125.936 46.2529L125.928 46.2452ZM125.928 45.4662L125.936 45.4585L125.944 45.4585Q126.015 45.4585 126.073 45.4798Q126.134 45.4992 126.18 45.536Q126.228 45.5709 126.263 45.6193Q126.3 45.6658 126.32 45.7259Q126.341 45.784 126.341 45.8557L126.341 45.8635L126.333 45.8712L125.928 45.8712L125.928 45.4662ZM125.959 45.4662L125.959 45.8712L125.554 45.8712L125.546 45.8635L125.546 45.8557Q125.546 45.784 125.566 45.7259Q125.585 45.6658 125.62 45.6193Q125.657 45.5709 125.703 45.536Q125.752 45.4992 125.812 45.4798Q125.872 45.4585 125.944 45.4585L125.951 45.4585L125.959 45.4662ZM125.959 42.2768L125.951 42.2846L125.944 42.2846Q125.872 42.2846 125.812 42.2652Q125.752 42.2458 125.703 42.211Q125.657 42.1741 125.62 42.1276Q125.585 42.0792 125.566 42.0191Q125.546 41.9591 125.546 41.8874L125.546 41.8796L125.554 41.8719L125.959 41.8719L125.959 42.2768ZM125.928 42.2768L125.928 41.8719L126.333 41.8719L126.341 41.8796L126.341 41.8874Q126.341 41.9591 126.32 42.0191Q126.3 42.0792 126.263 42.1276Q126.228 42.1741 126.18 42.211Q126.134 42.2458 126.073 42.2652Q126.015 42.2846 125.944 42.2846L125.936 42.2846L125.928 42.2768ZM125.928 41.4979L125.936 41.4901L125.944 41.4901Q126.015 41.4901 126.073 41.5115Q126.134 41.5308 126.18 41.5677Q126.228 41.6025 126.263 41.651Q126.3 41.6975 126.32 41.7575Q126.341 41.8157 126.341 41.8874L126.341 41.8951L126.333 41.9029L125.928 41.9029L125.928 41.4979ZM125.959 41.4979L125.959 41.9029L125.554 41.9029L125.546 41.8951L125.546 41.8874Q125.546 41.8157 125.566 41.7575Q125.585 41.6975 125.62 41.651Q125.657 41.6025 125.703 41.5677Q125.752 41.5308 125.812 41.5115Q125.872 41.4901 125.944 41.4901L125.951 41.4901L125.959 41.4979ZM126.754 46.2452L126.746 46.2529L126.738 46.2529Q126.666 46.2529 126.606 46.2336Q126.546 46.2142 126.498 46.1793Q126.451 46.1425 126.414 46.096Q126.38 46.0475 126.36 45.9875Q126.341 45.9274 126.341 45.8557L126.341 45.848L126.349 45.8402L126.754 45.8402L126.754 46.2452ZM126.723 46.2452L126.723 45.8402L127.128 45.8402L127.135 45.848L127.135 45.8557Q127.135 45.9274 127.114 45.9875Q127.095 46.0475 127.058 46.096Q127.023 46.1425 126.974 46.1793Q126.928 46.2142 126.868 46.2336Q126.81 46.2529 126.738 46.2529L126.73 46.2529L126.723 46.2452ZM126.723 45.4662L126.73 45.4585L126.738 45.4585Q126.81 45.4585 126.868 45.4798Q126.928 45.4992 126.974 45.536Q127.023 45.5709 127.058 45.6193Q127.095 45.6658 127.114 45.7259Q127.135 45.784 127.135 45.8557L127.135 45.8635L127.128 45.8712L126.723 45.8712L126.723 45.4662ZM126.754 45.4662L126.754 45.8712L126.349 45.8712L126.341 45.8635L126.341 45.8557Q126.341 45.784 126.36 45.7259Q126.38 45.6658 126.414 45.6193Q126.451 45.5709 126.498 45.536Q126.546 45.4992 126.606 45.4798Q126.666 45.4585 126.738 45.4585L126.746 45.4585L126.754 45.4662ZM126.754 44.6582L126.746 44.666L126.738 44.666Q126.666 44.666 126.606 44.6466Q126.546 44.6272 126.498 44.5924Q126.451 44.5555 126.414 44.509Q126.38 44.4606 126.36 44.4005Q126.341 44.3405 126.341 44.2688L126.341 44.261L126.349 44.2533L126.754 44.2533L126.754 44.6582ZM126.723 44.6582L126.723 44.2533L127.128 44.2533L127.135 44.261L127.135 44.2688Q127.135 44.3405 127.114 44.4005Q127.095 44.4606 127.058 44.509Q127.023 44.5555 126.974 44.5924Q126.928 44.6272 126.868 44.6466Q126.81 44.666 126.738 44.666L126.73 44.666L126.723 44.6582ZM126.723 43.8793L126.73 43.8715L126.738 43.8715Q126.81 43.8715 126.868 43.8929Q126.928 43.9122 126.974 43.949Q127.023 43.9839 127.058 44.0324Q127.095 44.0789 127.114 44.1389Q127.135 44.1971 127.135 44.2688L127.135 44.2765L127.128 44.2843L126.723 44.2843L126.723 43.8793ZM126.754 43.8793L126.754 44.2843L126.349 44.2843L126.341 44.2765L126.341 44.2688Q126.341 44.1971 126.36 44.1389Q126.38 44.0789 126.414 44.0324Q126.451 43.9839 126.498 43.949Q126.546 43.9122 126.606 43.8929Q126.666 43.8715 126.738 43.8715L126.746 43.8715L126.754 43.8793ZM126.754 42.2768L126.746 42.2846L126.738 42.2846Q126.666 42.2846 126.606 42.2652Q126.546 42.2458 126.498 42.211Q126.451 42.1741 126.414 42.1276Q126.38 42.0792 126.36 42.0191Q126.341 41.9591 126.341 41.8874L126.341 41.8796L126.349 41.8719L126.754 41.8719L126.754 42.2768ZM126.723 42.2768L126.723 41.8719L127.128 41.8719L127.135 41.8796L127.135 41.8874Q127.135 41.9591 127.114 42.0191Q127.095 42.0792 127.058 42.1276Q127.023 42.1741 126.974 42.211Q126.928 42.2458 126.868 42.2652Q126.81 42.2846 126.738 42.2846L126.73 42.2846L126.723 42.2768ZM126.723 41.4979L126.73 41.4901L126.738 41.4901Q126.81 41.4901 126.868 41.5115Q126.928 41.5308 126.974 41.5677Q127.023 41.6025 127.058 41.651Q127.095 41.6975 127.114 41.7575Q127.135 41.8157 127.135 41.8874L127.135 41.8951L127.128 41.9029L126.723 41.9029L126.723 41.4979ZM126.754 41.4979L126.754 41.9029L126.349 41.9029L126.341 41.8951L126.341 41.8874Q126.341 41.8157 126.36 41.7575Q126.38 41.6975 126.414 41.651Q126.451 41.6025 126.498 41.5677Q126.546 41.5308 126.606 41.5115Q126.666 41.4901 126.738 41.4901L126.746 41.4901L126.754 41.4979ZM127.546 45.4507L127.538 45.4585L127.531 45.4585Q127.459 45.4585 127.399 45.4391Q127.339 45.4197 127.29 45.3849Q127.244 45.348 127.207 45.3015Q127.172 45.2531 127.153 45.193Q127.133 45.133 127.133 45.0613L127.133 45.0535L127.141 45.0458L127.546 45.0458L127.546 45.4507ZM127.515 45.4507L127.515 45.0458L127.92 45.0458L127.928 45.0535L127.928 45.0613Q127.928 45.133 127.907 45.193Q127.887 45.2531 127.85 45.3015Q127.815 45.348 127.767 45.3849Q127.72 45.4197 127.66 45.4391Q127.602 45.4585 127.531 45.4585L127.523 45.4585L127.515 45.4507ZM127.515 44.6718L127.523 44.664L127.531 44.664Q127.602 44.664 127.66 44.6854Q127.72 44.7047 127.767 44.7416Q127.815 44.7764 127.85 44.8249Q127.887 44.8714 127.907 44.9314Q127.928 44.9896 127.928 45.0613L127.928 45.069L127.92 45.0768L127.515 45.0768L127.515 44.6718ZM127.546 44.6718L127.546 45.0768L127.141 45.0768L127.133 45.069L127.133 45.0613Q127.133 44.9896 127.153 44.9314Q127.172 44.8714 127.207 44.8249Q127.244 44.7764 127.29 44.7416Q127.339 44.7047 127.399 44.6854Q127.459 44.664 127.531 44.664L127.538 44.664L127.546 44.6718ZM127.546 44.6582L127.538 44.666L127.531 44.666Q127.459 44.666 127.399 44.6466Q127.339 44.6272 127.29 44.5924Q127.244 44.5555 127.207 44.509Q127.172 44.4606 127.153 44.4005Q127.133 44.3405 127.133 44.2688L127.133 44.261L127.141 44.2533L127.546 44.2533L127.546 44.6582ZM127.515 44.6582L127.515 44.2533L127.92 44.2533L127.928 44.261L127.928 44.2688Q127.928 44.3405 127.907 44.4005Q127.887 44.4606 127.85 44.509Q127.815 44.5555 127.767 44.5924Q127.72 44.6272 127.66 44.6466Q127.602 44.666 127.531 44.666L127.523 44.666L127.515 44.6582ZM127.515 43.8793L127.523 43.8715L127.531 43.8715Q127.602 43.8715 127.66 43.8929Q127.72 43.9122 127.767 43.949Q127.815 43.9839 127.85 44.0324Q127.887 44.0789 127.907 44.1389Q127.928 44.1971 127.928 44.2688L127.928 44.2765L127.92 44.2843L127.515 44.2843L127.515 43.8793ZM127.546 43.8793L127.546 44.2843L127.141 44.2843L127.133 44.2765L127.133 44.2688Q127.133 44.1971 127.153 44.1389Q127.172 44.0789 127.207 44.0324Q127.244 43.9839 127.29 43.949Q127.339 43.9122 127.399 43.8929Q127.459 43.8715 127.531 43.8715L127.538 43.8715L127.546 43.8793ZM127.546 43.0713L127.538 43.079L127.531 43.079Q127.459 43.079 127.399 43.0597Q127.339 43.0403 127.29 43.0054Q127.244 42.9686 127.207 42.9221Q127.172 42.8736 127.153 42.8136Q127.133 42.7535 127.133 42.6818L127.133 42.6741L127.141 42.6663L127.546 42.6663L127.546 43.0713ZM127.515 43.0713L127.515 42.6663L127.92 42.6663L127.928 42.6741L127.928 42.6818Q127.928 42.7535 127.907 42.8136Q127.887 42.8736 127.85 42.9221Q127.815 42.9686 127.767 43.0054Q127.72 43.0403 127.66 43.0597Q127.602 43.079 127.531 43.079L127.523 43.079L127.515 43.0713ZM127.515 42.2923L127.523 42.2846L127.531 42.2846Q127.602 42.2846 127.66 42.3059Q127.72 42.3253 127.767 42.3621Q127.815 42.397 127.85 42.4454Q127.887 42.4919 127.907 42.552Q127.928 42.6101 127.928 42.6818L127.928 42.6896L127.92 42.6973L127.515 42.6973L127.515 42.2923ZM127.546 42.2923L127.546 42.6973L127.141 42.6973L127.133 42.6896L127.133 42.6818Q127.133 42.6101 127.153 42.552Q127.172 42.4919 127.207 42.4454Q127.244 42.397 127.29 42.3621Q127.339 42.3253 127.399 42.3059Q127.459 42.2846 127.531 42.2846L127.538 42.2846L127.546 42.2923ZM129.134 46.2452L129.126 46.2529L129.119 46.2529Q129.047 46.2529 128.987 46.2336Q128.927 46.2142 128.878 46.1793Q128.832 46.1425 128.795 46.096Q128.76 46.0475 128.741 45.9875Q128.721 45.9274 128.721 45.8557L128.721 45.848L128.729 45.8402L129.134 45.8402L129.134 46.2452ZM129.103 46.2452L129.103 45.8402L129.508 45.8402L129.516 45.848L129.516 45.8557Q129.516 45.9274 129.495 45.9875Q129.475 46.0475 129.438 46.096Q129.404 46.1425 129.355 46.1793Q129.309 46.2142 129.249 46.2336Q129.19 46.2529 129.119 46.2529L129.111 46.2529L129.103 46.2452ZM129.103 45.4662L129.111 45.4585L129.119 45.4585Q129.19 45.4585 129.249 45.4798Q129.309 45.4992 129.355 45.536Q129.404 45.5709 129.438 45.6193Q129.475 45.6658 129.495 45.7259Q129.516 45.784 129.516 45.8557L129.516 45.8635L129.508 45.8712L129.103 45.8712L129.103 45.4662ZM129.134 45.4662L129.134 45.8712L128.729 45.8712L128.721 45.8635L128.721 45.8557Q128.721 45.784 128.741 45.7259Q128.76 45.6658 128.795 45.6193Q128.832 45.5709 128.878 45.536Q128.927 45.4992 128.987 45.4798Q129.047 45.4585 129.119 45.4585L129.126 45.4585L129.134 45.4662ZM129.134 45.4507L129.126 45.4585L129.119 45.4585Q129.047 45.4585 128.987 45.4391Q128.927 45.4197 128.878 45.3849Q128.832 45.348 128.795 45.3015Q128.76 45.2531 128.741 45.193Q128.721 45.133 128.721 45.0613L128.721 45.0535L128.729 45.0458L129.134 45.0458L129.134 45.4507ZM129.103 45.4507L129.103 45.0458L129.508 45.0458L129.516 45.0535L129.516 45.0613Q129.516 45.133 129.495 45.193Q129.475 45.2531 129.438 45.3015Q129.404 45.348 129.355 45.3849Q129.309 45.4197 129.249 45.4391Q129.19 45.4585 129.119 45.4585L129.111 45.4585L129.103 45.4507ZM129.103 44.6718L129.111 44.664L129.119 44.664Q129.19 44.664 129.249 44.6854Q129.309 44.7047 129.355 44.7416Q129.404 44.7764 129.438 44.8249Q129.475 44.8714 129.495 44.9314Q129.516 44.9896 129.516 45.0613L129.516 45.069L129.508 45.0768L129.103 45.0768L129.103 44.6718ZM129.134 44.6718L129.134 45.0768L128.729 45.0768L128.721 45.069L128.721 45.0613Q128.721 44.9896 128.741 44.9314Q128.76 44.8714 128.795 44.8249Q128.832 44.7764 128.878 44.7416Q128.927 44.7047 128.987 44.6854Q129.047 44.664 129.119 44.664L129.126 44.664L129.134 44.6718ZM129.134 44.6582L129.126 44.666L129.119 44.666Q129.047 44.666 128.987 44.6466Q128.927 44.6272 128.878 44.5924Q128.832 44.5555 128.795 44.509Q128.76 44.4606 128.741 44.4005Q128.721 44.3405 128.721 44.2688L128.721 44.261L128.729 44.2533L129.134 44.2533L129.134 44.6582ZM129.103 44.6582L129.103 44.2533L129.508 44.2533L129.516 44.261L129.516 44.2688Q129.516 44.3405 129.495 44.4005Q129.475 44.4606 129.438 44.509Q129.404 44.5555 129.355 44.5924Q129.309 44.6272 129.249 44.6466Q129.19 44.666 129.119 44.666L129.111 44.666L129.103 44.6582ZM129.103 43.8793L129.111 43.8715L129.119 43.8715Q129.19 43.8715 129.249 43.8929Q129.309 43.9122 129.355 43.949Q129.404 43.9839 129.438 44.0324Q129.475 44.0789 129.495 44.1389Q129.516 44.1971 129.516 44.2688L129.516 44.2765L129.508 44.2843L129.103 44.2843L129.103 43.8793ZM129.134 43.8793L129.134 44.2843L128.729 44.2843L128.721 44.2765L128.721 44.2688Q128.721 44.1971 128.741 44.1389Q128.76 44.0789 128.795 44.0324Q128.832 43.9839 128.878 43.949Q128.927 43.9122 128.987 43.8929Q129.047 43.8715 129.119 43.8715L129.126 43.8715L129.134 43.8793ZM129.134 43.8638L129.126 43.8715L129.119 43.8715Q129.047 43.8715 128.987 43.8522Q128.927 43.8328 128.878 43.7979Q128.832 43.7611 128.795 43.7146Q128.76 43.6661 128.741 43.6061Q128.721 43.546 128.721 43.4743L128.721 43.4666L128.729 43.4588L129.134 43.4588L129.134 43.8638ZM129.103 43.8638L129.103 43.4588L129.508 43.4588L129.516 43.4666L129.516 43.4743Q129.516 43.546 129.495 43.6061Q129.475 43.6661 129.438 43.7146Q129.404 43.7611 129.355 43.7979Q129.309 43.8328 129.249 43.8522Q129.19 43.8715 129.119 43.8715L129.111 43.8715L129.103 43.8638ZM129.103 43.0848L129.111 43.0771L129.119 43.0771Q129.19 43.0771 129.249 43.0984Q129.309 43.1178 129.355 43.1546Q129.404 43.1895 129.438 43.2379Q129.475 43.2844 129.495 43.3445Q129.516 43.4026 129.516 43.4743L129.516 43.4821L129.508 43.4898L129.103 43.4898L129.103 43.0848ZM129.134 43.0848L129.134 43.4898L128.729 43.4898L128.721 43.4821L128.721 43.4743Q128.721 43.4026 128.741 43.3445Q128.76 43.2844 128.795 43.2379Q128.832 43.1895 128.878 43.1546Q128.927 43.1178 128.987 43.0984Q129.047 43.0771 129.119 43.0771L129.126 43.0771L129.134 43.0848ZM129.134 43.0713L129.126 43.079L129.119 43.079Q129.047 43.079 128.987 43.0597Q128.927 43.0403 128.878 43.0054Q128.832 42.9686 128.795 42.9221Q128.76 42.8736 128.741 42.8136Q128.721 42.7535 128.721 42.6818L128.721 42.6741L128.729 42.6663L129.134 42.6663L129.134 43.0713ZM129.103 43.0713L129.103 42.6663L129.508 42.6663L129.516 42.6741L129.516 42.6818Q129.516 42.7535 129.495 42.8136Q129.475 42.8736 129.438 42.9221Q129.404 42.9686 129.355 43.0054Q129.309 43.0403 129.249 43.0597Q129.19 43.079 129.119 43.079L129.111 43.079L129.103 43.0713ZM129.103 42.2923L129.111 42.2846L129.119 42.2846Q129.19 42.2846 129.249 42.3059Q129.309 42.3253 129.355 42.3621Q129.404 42.397 129.438 42.4454Q129.475 42.4919 129.495 42.552Q129.516 42.6101 129.516 42.6818L129.516 42.6896L129.508 42.6973L129.103 42.6973L129.103 42.2923ZM129.134 42.2923L129.134 42.6973L128.729 42.6973L128.721 42.6896L128.721 42.6818Q128.721 42.6101 128.741 42.552Q128.76 42.4919 128.795 42.4454Q128.832 42.397 128.878 42.3621Q128.927 42.3253 128.987 42.3059Q129.047 42.2846 129.119 42.2846L129.126 42.2846L129.134 42.2923ZM129.134 42.2768L129.126 42.2846L129.119 42.2846Q129.047 42.2846 128.987 42.2652Q128.927 42.2458 128.878 42.211Q128.832 42.1741 128.795 42.1276Q128.76 42.0792 128.741 42.0191Q128.721 41.9591 128.721 41.8874L128.721 41.8796L128.729 41.8719L129.134 41.8719L129.134 42.2768ZM129.103 42.2768L129.103 41.8719L129.508 41.8719L129.516 41.8796L129.516 41.8874Q129.516 41.9591 129.495 42.0191Q129.475 42.0792 129.438 42.1276Q129.404 42.1741 129.355 42.211Q129.309 42.2458 129.249 42.2652Q129.19 42.2846 129.119 42.2846L129.111 42.2846L129.103 42.2768ZM129.103 41.4979L129.111 41.4901L129.119 41.4901Q129.19 41.4901 129.249 41.5115Q129.309 41.5308 129.355 41.5677Q129.404 41.6025 129.438 41.651Q129.475 41.6975 129.495 41.7575Q129.516 41.8157 129.516 41.8874L129.516 41.8951L129.508 41.9029L129.103 41.9029L129.103 41.4979ZM129.134 41.4979L129.134 41.9029L128.729 41.9029L128.721 41.8951L128.721 41.8874Q128.721 41.8157 128.741 41.7575Q128.76 41.6975 128.795 41.651Q128.832 41.6025 128.878 41.5677Q128.927 41.5308 128.987 41.5115Q129.047 41.4901 129.119 41.4901L129.126 41.4901L129.134 41.4979ZM129.929 44.6582L129.921 44.666L129.913 44.666Q129.841 44.666 129.781 44.6466Q129.721 44.6272 129.673 44.5924Q129.626 44.5555 129.59 44.509Q129.555 44.4606 129.535 44.4005Q129.516 44.3405 129.516 44.2688L129.516 44.261L129.524 44.2533L129.929 44.2533L129.929 44.6582ZM129.898 44.6582L129.898 44.2533L130.303 44.2533L130.31 44.261L130.31 44.2688Q130.31 44.3405 130.289 44.4005Q130.27 44.4606 130.233 44.509Q130.198 44.5555 130.15 44.5924Q130.103 44.6272 130.043 44.6466Q129.985 44.666 129.913 44.666L129.905 44.666L129.898 44.6582ZM129.898 43.8793L129.905 43.8715L129.913 43.8715Q129.985 43.8715 130.043 43.8929Q130.103 43.9122 130.15 43.949Q130.198 43.9839 130.233 44.0324Q130.27 44.0789 130.289 44.1389Q130.31 44.1971 130.31 44.2688L130.31 44.2765L130.303 44.2843L129.898 44.2843L129.898 43.8793ZM129.929 43.8793L129.929 44.2843L129.524 44.2843L129.516 44.2765L129.516 44.2688Q129.516 44.1971 129.535 44.1389Q129.555 44.0789 129.59 44.0324Q129.626 43.9839 129.673 43.949Q129.721 43.9122 129.781 43.8929Q129.841 43.8715 129.913 43.8715L129.921 43.8715L129.929 43.8793ZM129.929 42.2768L129.921 42.2846L129.913 42.2846Q129.841 42.2846 129.781 42.2652Q129.721 42.2458 129.673 42.211Q129.626 42.1741 129.59 42.1276Q129.555 42.0792 129.535 42.0191Q129.516 41.9591 129.516 41.8874L129.516 41.8796L129.524 41.8719L129.929 41.8719L129.929 42.2768ZM129.898 42.2768L129.898 41.8719L130.303 41.8719L130.31 41.8796L130.31 41.8874Q130.31 41.9591 130.289 42.0191Q130.27 42.0792 130.233 42.1276Q130.198 42.1741 130.15 42.211Q130.103 42.2458 130.043 42.2652Q129.985 42.2846 129.913 42.2846L129.905 42.2846L129.898 42.2768ZM129.898 41.4979L129.905 41.4901L129.913 41.4901Q129.985 41.4901 130.043 41.5115Q130.103 41.5308 130.15 41.5677Q130.198 41.6025 130.233 41.651Q130.27 41.6975 130.289 41.7575Q130.31 41.8157 130.31 41.8874L130.31 41.8951L130.303 41.9029L129.898 41.9029L129.898 41.4979ZM129.929 41.4979L129.929 41.9029L129.524 41.9029L129.516 41.8951L129.516 41.8874Q129.516 41.8157 129.535 41.7575Q129.555 41.6975 129.59 41.651Q129.626 41.6025 129.673 41.5677Q129.721 41.5308 129.781 41.5115Q129.841 41.4901 129.913 41.4901L129.921 41.4901L129.929 41.4979ZM130.721 44.6582L130.713 44.666L130.706 44.666Q130.634 44.666 130.574 44.6466Q130.514 44.6272 130.465 44.5924Q130.419 44.5555 130.382 44.509Q130.347 44.4606 130.328 44.4005Q130.308 44.3405 130.308 44.2688L130.308 44.261L130.316 44.2533L130.721 44.2533L130.721 44.6582ZM130.69 44.6582L130.69 44.2533L131.095 44.2533L131.103 44.261L131.103 44.2688Q131.103 44.3405 131.082 44.4005Q131.062 44.4606 131.025 44.509Q130.99 44.5555 130.942 44.5924Q130.896 44.6272 130.835 44.6466Q130.777 44.666 130.706 44.666L130.698 44.666L130.69 44.6582ZM130.69 43.8793L130.698 43.8715L130.706 43.8715Q130.777 43.8715 130.835 43.8929Q130.896 43.9122 130.942 43.949Q130.99 43.9839 131.025 44.0324Q131.062 44.0789 131.082 44.1389Q131.103 44.1971 131.103 44.2688L131.103 44.2765L131.095 44.2843L130.69 44.2843L130.69 43.8793ZM130.721 43.8793L130.721 44.2843L130.316 44.2843L130.308 44.2765L130.308 44.2688Q130.308 44.1971 130.328 44.1389Q130.347 44.0789 130.382 44.0324Q130.419 43.9839 130.465 43.949Q130.514 43.9122 130.574 43.8929Q130.634 43.8715 130.706 43.8715L130.713 43.8715L130.721 43.8793ZM130.721 42.2768L130.713 42.2846L130.706 42.2846Q130.634 42.2846 130.574 42.2652Q130.514 42.2458 130.465 42.211Q130.419 42.1741 130.382 42.1276Q130.347 42.0792 130.328 42.0191Q130.308 41.9591 130.308 41.8874L130.308 41.8796L130.316 41.8719L130.721 41.8719L130.721 42.2768ZM130.69 42.2768L130.69 41.8719L131.095 41.8719L131.103 41.8796L131.103 41.8874Q131.103 41.9591 131.082 42.0191Q131.062 42.0792 131.025 42.1276Q130.99 42.1741 130.942 42.211Q130.896 42.2458 130.835 42.2652Q130.777 42.2846 130.706 42.2846L130.698 42.2846L130.69 42.2768ZM130.69 41.4979L130.698 41.4901L130.706 41.4901Q130.777 41.4901 130.835 41.5115Q130.896 41.5308 130.942 41.5677Q130.99 41.6025 131.025 41.651Q131.062 41.6975 131.082 41.7575Q131.103 41.8157 131.103 41.8874L131.103 41.8951L131.095 41.9029L130.69 41.9029L130.69 41.4979ZM130.721 41.4979L130.721 41.9029L130.316 41.9029L130.308 41.8951L130.308 41.8874Q130.308 41.8157 130.328 41.7575Q130.347 41.6975 130.382 41.651Q130.419 41.6025 130.465 41.5677Q130.514 41.5308 130.574 41.5115Q130.634 41.4901 130.706 41.4901L130.713 41.4901L130.721 41.4979ZM131.516 44.6582L131.508 44.666L131.5 44.666Q131.428 44.666 131.368 44.6466Q131.308 44.6272 131.26 44.5924Q131.213 44.5555 131.176 44.509Q131.142 44.4606 131.122 44.4005Q131.103 44.3405 131.103 44.2688L131.103 44.261L131.111 44.2533L131.516 44.2533L131.516 44.6582ZM131.485 44.6582L131.485 44.2533L131.89 44.2533L131.897 44.261L131.897 44.2688Q131.897 44.3405 131.876 44.4005Q131.857 44.4606 131.82 44.509Q131.785 44.5555 131.736 44.5924Q131.69 44.6272 131.63 44.6466Q131.572 44.666 131.5 44.666L131.492 44.666L131.485 44.6582ZM131.485 43.8793L131.492 43.8715L131.5 43.8715Q131.572 43.8715 131.63 43.8929Q131.69 43.9122 131.736 43.949Q131.785 43.9839 131.82 44.0324Q131.857 44.0789 131.876 44.1389Q131.897 44.1971 131.897 44.2688L131.897 44.2765L131.89 44.2843L131.485 44.2843L131.485 43.8793ZM131.516 43.8793L131.516 44.2843L131.111 44.2843L131.103 44.2765L131.103 44.2688Q131.103 44.1971 131.122 44.1389Q131.142 44.0789 131.176 44.0324Q131.213 43.9839 131.26 43.949Q131.308 43.9122 131.368 43.8929Q131.428 43.8715 131.5 43.8715L131.508 43.8715L131.516 43.8793ZM131.516 42.2768L131.508 42.2846L131.5 42.2846Q131.428 42.2846 131.368 42.2652Q131.308 42.2458 131.26 42.211Q131.213 42.1741 131.176 42.1276Q131.142 42.0792 131.122 42.0191Q131.103 41.9591 131.103 41.8874L131.103 41.8796L131.111 41.8719L131.516 41.8719L131.516 42.2768ZM131.485 42.2768L131.485 41.8719L131.89 41.8719L131.897 41.8796L131.897 41.8874Q131.897 41.9591 131.876 42.0191Q131.857 42.0792 131.82 42.1276Q131.785 42.1741 131.736 42.211Q131.69 42.2458 131.63 42.2652Q131.572 42.2846 131.5 42.2846L131.492 42.2846L131.485 42.2768ZM131.485 41.4979L131.492 41.4901L131.5 41.4901Q131.572 41.4901 131.63 41.5115Q131.69 41.5308 131.736 41.5677Q131.785 41.6025 131.82 41.651Q131.857 41.6975 131.876 41.7575Q131.897 41.8157 131.897 41.8874L131.897 41.8951L131.89 41.9029L131.485 41.9029L131.485 41.4979ZM131.516 41.4979L131.516 41.9029L131.111 41.9029L131.103 41.8951L131.103 41.8874Q131.103 41.8157 131.122 41.7575Q131.142 41.6975 131.176 41.651Q131.213 41.6025 131.26 41.5677Q131.308 41.5308 131.368 41.5115Q131.428 41.4901 131.5 41.4901L131.508 41.4901L131.516 41.4979ZM132.308 43.8638L132.3 43.8715L132.293 43.8715Q132.221 43.8715 132.161 43.8522Q132.101 43.8328 132.052 43.7979Q132.006 43.7611 131.969 43.7146Q131.934 43.6661 131.915 43.6061Q131.895 43.546 131.895 43.4743L131.895 43.4666L131.903 43.4588L132.308 43.4588L132.308 43.8638ZM132.277 43.8638L132.277 43.4588L132.682 43.4588L132.69 43.4666L132.69 43.4743Q132.69 43.546 132.669 43.6061Q132.649 43.6661 132.612 43.7146Q132.577 43.7611 132.529 43.7979Q132.482 43.8328 132.422 43.8522Q132.364 43.8715 132.293 43.8715L132.285 43.8715L132.277 43.8638ZM132.277 43.0848L132.285 43.0771L132.293 43.0771Q132.364 43.0771 132.422 43.0984Q132.482 43.1178 132.529 43.1546Q132.577 43.1895 132.612 43.2379Q132.649 43.2844 132.669 43.3445Q132.69 43.4026 132.69 43.4743L132.69 43.4821L132.682 43.4898L132.277 43.4898L132.277 43.0848ZM132.308 43.0848L132.308 43.4898L131.903 43.4898L131.895 43.4821L131.895 43.4743Q131.895 43.4026 131.915 43.3445Q131.934 43.2844 131.969 43.2379Q132.006 43.1895 132.052 43.1546Q132.101 43.1178 132.161 43.0984Q132.221 43.0771 132.293 43.0771L132.3 43.0771L132.308 43.0848ZM132.308 43.0713L132.3 43.079L132.293 43.079Q132.221 43.079 132.161 43.0597Q132.101 43.0403 132.052 43.0054Q132.006 42.9686 131.969 42.9221Q131.934 42.8736 131.915 42.8136Q131.895 42.7535 131.895 42.6818L131.895 42.6741L131.903 42.6663L132.308 42.6663L132.308 43.0713ZM132.277 43.0713L132.277 42.6663L132.682 42.6663L132.69 42.6741L132.69 42.6818Q132.69 42.7535 132.669 42.8136Q132.649 42.8736 132.612 42.9221Q132.577 42.9686 132.529 43.0054Q132.482 43.0403 132.422 43.0597Q132.364 43.079 132.293 43.079L132.285 43.079L132.277 43.0713ZM132.277 42.2923L132.285 42.2846L132.293 42.2846Q132.364 42.2846 132.422 42.3059Q132.482 42.3253 132.529 42.3621Q132.577 42.397 132.612 42.4454Q132.649 42.4919 132.669 42.552Q132.69 42.6101 132.69 42.6818L132.69 42.6896L132.682 42.6973L132.277 42.6973L132.277 42.2923ZM132.308 42.2923L132.308 42.6973L131.903 42.6973L131.895 42.6896L131.895 42.6818Q131.895 42.6101 131.915 42.552Q131.934 42.4919 131.969 42.4454Q132.006 42.397 132.052 42.3621Q132.101 42.3253 132.161 42.3059Q132.221 42.2846 132.293 42.2846L132.3 42.2846L132.308 42.2923ZM133.896 42.2768L133.888 42.2846L133.881 42.2846Q133.809 42.2846 133.749 42.2652Q133.689 42.2458 133.64 42.211Q133.594 42.1741 133.557 42.1276Q133.522 42.0792 133.503 42.0191Q133.483 41.9591 133.483 41.8874L133.483 41.8796L133.491 41.8719L133.896 41.8719L133.896 42.2768ZM133.865 42.2768L133.865 41.8719L134.27 41.8719L134.278 41.8796L134.278 41.8874Q134.278 41.9591 134.257 42.0191Q134.237 42.0792 134.2 42.1276Q134.166 42.1741 134.117 42.211Q134.071 42.2458 134.011 42.2652Q133.952 42.2846 133.881 42.2846L133.873 42.2846L133.865 42.2768ZM133.865 41.4979L133.873 41.4901L133.881 41.4901Q133.952 41.4901 134.011 41.5115Q134.071 41.5308 134.117 41.5677Q134.166 41.6025 134.2 41.651Q134.237 41.6975 134.257 41.7575Q134.278 41.8157 134.278 41.8874L134.278 41.8951L134.27 41.9029L133.865 41.9029L133.865 41.4979ZM133.896 41.4979L133.896 41.9029L133.491 41.9029L133.483 41.8951L133.483 41.8874Q133.483 41.8157 133.503 41.7575Q133.522 41.6975 133.557 41.651Q133.594 41.6025 133.64 41.5677Q133.689 41.5308 133.749 41.5115Q133.809 41.4901 133.881 41.4901L133.888 41.4901L133.896 41.4979ZM134.691 42.2768L134.683 42.2846L134.675 42.2846Q134.603 42.2846 134.543 42.2652Q134.483 42.2458 134.435 42.211Q134.388 42.1741 134.352 42.1276Q134.317 42.0792 134.297 42.0191Q134.278 41.9591 134.278 41.8874L134.278 41.8796L134.286 41.8719L134.691 41.8719L134.691 42.2768ZM134.66 42.2768L134.66 41.8719L135.065 41.8719L135.072 41.8796L135.072 41.8874Q135.072 41.9591 135.051 42.0191Q135.032 42.0792 134.995 42.1276Q134.96 42.1741 134.912 42.211Q134.865 42.2458 134.805 42.2652Q134.747 42.2846 134.675 42.2846L134.667 42.2846L134.66 42.2768ZM134.66 41.4979L134.667 41.4901L134.675 41.4901Q134.747 41.4901 134.805 41.5115Q134.865 41.5308 134.912 41.5677Q134.96 41.6025 134.995 41.651Q135.032 41.6975 135.051 41.7575Q135.072 41.8157 135.072 41.8874L135.072 41.8951L135.065 41.9029L134.66 41.9029L134.66 41.4979ZM134.691 41.4979L134.691 41.9029L134.286 41.9029L134.278 41.8951L134.278 41.8874Q134.278 41.8157 134.297 41.7575Q134.317 41.6975 134.352 41.651Q134.388 41.6025 134.435 41.5677Q134.483 41.5308 134.543 41.5115Q134.603 41.4901 134.675 41.4901L134.683 41.4901L134.691 41.4979ZM135.483 46.2452L135.475 46.2529L135.468 46.2529Q135.396 46.2529 135.336 46.2336Q135.276 46.2142 135.227 46.1793Q135.181 46.1425 135.144 46.096Q135.109 46.0475 135.09 45.9875Q135.07 45.9274 135.07 45.8557L135.07 45.848L135.078 45.8402L135.483 45.8402L135.483 46.2452ZM135.452 46.2452L135.452 45.8402L135.857 45.8402L135.865 45.848L135.865 45.8557Q135.865 45.9274 135.844 45.9875Q135.824 46.0475 135.787 46.096Q135.753 46.1425 135.704 46.1793Q135.658 46.2142 135.597 46.2336Q135.539 46.2529 135.468 46.2529L135.46 46.2529L135.452 46.2452ZM135.452 45.4662L135.46 45.4585L135.468 45.4585Q135.539 45.4585 135.597 45.4798Q135.658 45.4992 135.704 45.536Q135.753 45.5709 135.787 45.6193Q135.824 45.6658 135.844 45.7259Q135.865 45.784 135.865 45.8557L135.865 45.8635L135.857 45.8712L135.452 45.8712L135.452 45.4662ZM135.483 45.4662L135.483 45.8712L135.078 45.8712L135.07 45.8635L135.07 45.8557Q135.07 45.784 135.09 45.7259Q135.109 45.6658 135.144 45.6193Q135.181 45.5709 135.227 45.536Q135.276 45.4992 135.336 45.4798Q135.396 45.4585 135.468 45.4585L135.475 45.4585L135.483 45.4662ZM135.483 45.4507L135.475 45.4585L135.468 45.4585Q135.396 45.4585 135.336 45.4391Q135.276 45.4197 135.227 45.3849Q135.181 45.348 135.144 45.3015Q135.109 45.2531 135.09 45.193Q135.07 45.133 135.07 45.0613L135.07 45.0535L135.078 45.0458L135.483 45.0458L135.483 45.4507ZM135.452 45.4507L135.452 45.0458L135.857 45.0458L135.865 45.0535L135.865 45.0613Q135.865 45.133 135.844 45.193Q135.824 45.2531 135.787 45.3015Q135.753 45.348 135.704 45.3849Q135.658 45.4197 135.597 45.4391Q135.539 45.4585 135.468 45.4585L135.46 45.4585L135.452 45.4507ZM135.452 44.6718L135.46 44.664L135.468 44.664Q135.539 44.664 135.597 44.6854Q135.658 44.7047 135.704 44.7416Q135.753 44.7764 135.787 44.8249Q135.824 44.8714 135.844 44.9314Q135.865 44.9896 135.865 45.0613L135.865 45.069L135.857 45.0768L135.452 45.0768L135.452 44.6718ZM135.483 44.6718L135.483 45.0768L135.078 45.0768L135.07 45.069L135.07 45.0613Q135.07 44.9896 135.09 44.9314Q135.109 44.8714 135.144 44.8249Q135.181 44.7764 135.227 44.7416Q135.276 44.7047 135.336 44.6854Q135.396 44.664 135.468 44.664L135.475 44.664L135.483 44.6718ZM135.483 44.6582L135.475 44.666L135.468 44.666Q135.396 44.666 135.336 44.6466Q135.276 44.6272 135.227 44.5924Q135.181 44.5555 135.144 44.509Q135.109 44.4606 135.09 44.4005Q135.07 44.3405 135.07 44.2688L135.07 44.261L135.078 44.2533L135.483 44.2533L135.483 44.6582ZM135.452 44.6582L135.452 44.2533L135.857 44.2533L135.865 44.261L135.865 44.2688Q135.865 44.3405 135.844 44.4005Q135.824 44.4606 135.787 44.509Q135.753 44.5555 135.704 44.5924Q135.658 44.6272 135.597 44.6466Q135.539 44.666 135.468 44.666L135.46 44.666L135.452 44.6582ZM135.452 43.8793L135.46 43.8715L135.468 43.8715Q135.539 43.8715 135.597 43.8929Q135.658 43.9122 135.704 43.949Q135.753 43.9839 135.787 44.0324Q135.824 44.0789 135.844 44.1389Q135.865 44.1971 135.865 44.2688L135.865 44.2765L135.857 44.2843L135.452 44.2843L135.452 43.8793ZM135.483 43.8793L135.483 44.2843L135.078 44.2843L135.07 44.2765L135.07 44.2688Q135.07 44.1971 135.09 44.1389Q135.109 44.0789 135.144 44.0324Q135.181 43.9839 135.227 43.949Q135.276 43.9122 135.336 43.8929Q135.396 43.8715 135.468 43.8715L135.475 43.8715L135.483 43.8793ZM135.483 43.8638L135.475 43.8715L135.468 43.8715Q135.396 43.8715 135.336 43.8522Q135.276 43.8328 135.227 43.7979Q135.181 43.7611 135.144 43.7146Q135.109 43.6661 135.09 43.6061Q135.07 43.546 135.07 43.4743L135.07 43.4666L135.078 43.4588L135.483 43.4588L135.483 43.8638ZM135.452 43.8638L135.452 43.4588L135.857 43.4588L135.865 43.4666L135.865 43.4743Q135.865 43.546 135.844 43.6061Q135.824 43.6661 135.787 43.7146Q135.753 43.7611 135.704 43.7979Q135.658 43.8328 135.597 43.8522Q135.539 43.8715 135.468 43.8715L135.46 43.8715L135.452 43.8638ZM135.452 43.0848L135.46 43.0771L135.468 43.0771Q135.539 43.0771 135.597 43.0984Q135.658 43.1178 135.704 43.1546Q135.753 43.1895 135.787 43.2379Q135.824 43.2844 135.844 43.3445Q135.865 43.4026 135.865 43.4743L135.865 43.4821L135.857 43.4898L135.452 43.4898L135.452 43.0848ZM135.483 43.0848L135.483 43.4898L135.078 43.4898L135.07 43.4821L135.07 43.4743Q135.07 43.4026 135.09 43.3445Q135.109 43.2844 135.144 43.2379Q135.181 43.1895 135.227 43.1546Q135.276 43.1178 135.336 43.0984Q135.396 43.0771 135.468 43.0771L135.475 43.0771L135.483 43.0848ZM135.483 43.0713L135.475 43.079L135.468 43.079Q135.396 43.079 135.336 43.0597Q135.276 43.0403 135.227 43.0054Q135.181 42.9686 135.144 42.9221Q135.109 42.8736 135.09 42.8136Q135.07 42.7535 135.07 42.6818L135.07 42.6741L135.078 42.6663L135.483 42.6663L135.483 43.0713ZM135.452 43.0713L135.452 42.6663L135.857 42.6663L135.865 42.6741L135.865 42.6818Q135.865 42.7535 135.844 42.8136Q135.824 42.8736 135.787 42.9221Q135.753 42.9686 135.704 43.0054Q135.658 43.0403 135.597 43.0597Q135.539 43.079 135.468 43.079L135.46 43.079L135.452 43.0713ZM135.452 42.2923L135.46 42.2846L135.468 42.2846Q135.539 42.2846 135.597 42.3059Q135.658 42.3253 135.704 42.3621Q135.753 42.397 135.787 42.4454Q135.824 42.4919 135.844 42.552Q135.865 42.6101 135.865 42.6818L135.865 42.6896L135.857 42.6973L135.452 42.6973L135.452 42.2923ZM135.483 42.2923L135.483 42.6973L135.078 42.6973L135.07 42.6896L135.07 42.6818Q135.07 42.6101 135.09 42.552Q135.109 42.4919 135.144 42.4454Q135.181 42.397 135.227 42.3621Q135.276 42.3253 135.336 42.3059Q135.396 42.2846 135.468 42.2846L135.475 42.2846L135.483 42.2923ZM135.483 42.2768L135.475 42.2846L135.468 42.2846Q135.396 42.2846 135.336 42.2652Q135.276 42.2458 135.227 42.211Q135.181 42.1741 135.144 42.1276Q135.109 42.0792 135.09 42.0191Q135.07 41.9591 135.07 41.8874L135.07 41.8796L135.078 41.8719L135.483 41.8719L135.483 42.2768ZM135.452 42.2768L135.452 41.8719L135.857 41.8719L135.865 41.8796L135.865 41.8874Q135.865 41.9591 135.844 42.0191Q135.824 42.0792 135.787 42.1276Q135.753 42.1741 135.704 42.211Q135.658 42.2458 135.597 42.2652Q135.539 42.2846 135.468 42.2846L135.46 42.2846L135.452 42.2768ZM135.452 41.4979L135.46 41.4901L135.468 41.4901Q135.539 41.4901 135.597 41.5115Q135.658 41.5308 135.704 41.5677Q135.753 41.6025 135.787 41.651Q135.824 41.6975 135.844 41.7575Q135.865 41.8157 135.865 41.8874L135.865 41.8951L135.857 41.9029L135.452 41.9029L135.452 41.4979ZM135.483 41.4979L135.483 41.9029L135.078 41.9029L135.07 41.8951L135.07 41.8874Q135.07 41.8157 135.09 41.7575Q135.109 41.6975 135.144 41.651Q135.181 41.6025 135.227 41.5677Q135.276 41.5308 135.336 41.5115Q135.396 41.4901 135.468 41.4901L135.475 41.4901L135.483 41.4979ZM136.278 42.2768L136.27 42.2846L136.262 42.2846Q136.19 42.2846 136.13 42.2652Q136.07 42.2458 136.022 42.211Q135.975 42.1741 135.939 42.1276Q135.904 42.0792 135.884 42.0191Q135.865 41.9591 135.865 41.8874L135.865 41.8796L135.873 41.8719L136.278 41.8719L136.278 42.2768ZM136.247 42.2768L136.247 41.8719L136.652 41.8719L136.659 41.8796L136.659 41.8874Q136.659 41.9591 136.638 42.0191Q136.619 42.0792 136.582 42.1276Q136.547 42.1741 136.499 42.211Q136.452 42.2458 136.392 42.2652Q136.334 42.2846 136.262 42.2846L136.254 42.2846L136.247 42.2768ZM136.247 41.4979L136.254 41.4901L136.262 41.4901Q136.334 41.4901 136.392 41.5115Q136.452 41.5308 136.499 41.5677Q136.547 41.6025 136.582 41.651Q136.619 41.6975 136.638 41.7575Q136.659 41.8157 136.659 41.8874L136.659 41.8951L136.652 41.9029L136.247 41.9029L136.247 41.4979ZM136.278 41.4979L136.278 41.9029L135.873 41.9029L135.865 41.8951L135.865 41.8874Q135.865 41.8157 135.884 41.7575Q135.904 41.6975 135.939 41.651Q135.975 41.6025 136.022 41.5677Q136.07 41.5308 136.13 41.5115Q136.19 41.4901 136.262 41.4901L136.27 41.4901L136.278 41.4979ZM137.07 42.2768L137.062 42.2846L137.055 42.2846Q136.983 42.2846 136.923 42.2652Q136.863 42.2458 136.814 42.211Q136.768 42.1741 136.731 42.1276Q136.696 42.0792 136.677 42.0191Q136.657 41.9591 136.657 41.8874L136.657 41.8796L136.665 41.8719L137.07 41.8719L137.07 42.2768ZM137.039 42.2768L137.039 41.8719L137.444 41.8719L137.452 41.8796L137.452 41.8874Q137.452 41.9591 137.431 42.0191Q137.411 42.0792 137.374 42.1276Q137.339 42.1741 137.291 42.211Q137.245 42.2458 137.184 42.2652Q137.126 42.2846 137.055 42.2846L137.047 42.2846L137.039 42.2768ZM137.039 41.4979L137.047 41.4901L137.055 41.4901Q137.126 41.4901 137.184 41.5115Q137.245 41.5308 137.291 41.5677Q137.339 41.6025 137.374 41.651Q137.411 41.6975 137.431 41.7575Q137.452 41.8157 137.452 41.8874L137.452 41.8951L137.444 41.9029L137.039 41.9029L137.039 41.4979ZM137.07 41.4979L137.07 41.9029L136.665 41.9029L136.657 41.8951L136.657 41.8874Q136.657 41.8157 136.677 41.7575Q136.696 41.6975 136.731 41.651Q136.768 41.6025 136.814 41.5677Q136.863 41.5308 136.923 41.5115Q136.983 41.4901 137.055 41.4901L137.062 41.4901L137.07 41.4979Z" fill="rgb(144,148,132)" fill-opacity="0" fill-rule="nonzero" />
				<rect id="矩形 462" width="27.746786" height="17.341742" x="116.435547" y="20.972656" rx="1.252459" fill="rgb(162,154,137)" />
			</g>
			<g id="组合 325">
				<path id="矢量 173" d="M19.9111 50.356C19.4553 50.3437 19.0069 50.294 18.5659 50.2067L18.5658 50.2067L18.5658 50.2067C18.0466 50.104 17.5378 49.9493 17.0392 49.7426C16.5652 49.5462 16.1174 49.3097 15.6958 49.0333L15.6958 49.0333L15.6953 49.033C15.2429 48.7363 14.8206 48.3935 14.4285 48.0047L14.1904 47.7686L13.8736 47.8787C13.763 47.9171 13.6515 47.953 13.5393 47.9862C12.829 48.1965 12.0875 48.3017 11.3149 48.3017C10.787 48.3017 10.2688 48.2518 9.76047 48.1521L9.76041 48.1521C9.23429 48.0489 8.71863 47.8923 8.21346 47.6823C7.73463 47.4832 7.28252 47.2436 6.85714 46.9634C6.41889 46.6748 6.009 46.343 5.62748 45.9682C4.86465 45.2188 4.28174 44.3896 3.87874 43.4807L3.87872 43.4807C3.42737 42.4627 3.2017 41.3446 3.2017 40.1265C3.2017 39.4838 3.28904 38.7929 3.46372 38.0537L3.53637 37.7462L3.30308 37.5332C2.80304 37.0766 2.3683 36.5757 1.99887 36.0306L1.99876 36.0305L1.99872 36.0304C1.72152 35.6214 1.48109 35.1874 1.27743 34.7285C1.0172 34.1422 0.828887 33.5422 0.712509 32.9285L0.712495 32.9285L0.712487 32.9284L0.712481 32.9284C0.618353 32.432 0.571289 31.9267 0.571289 31.4125C0.571289 30.617 0.678154 29.8526 0.891883 29.1194L0.891987 29.119L0.892037 29.1188C1.15972 28.2008 1.59494 27.3315 2.1977 26.5112C2.83229 25.6475 3.57229 24.9543 4.4177 24.4315L4.41783 24.4314C5.06339 24.0322 5.77041 23.7325 6.53889 23.5321L6.86336 23.4475L6.93 23.1188C7.05894 22.4829 7.2558 21.8784 7.52056 21.3053L7.52056 21.3052C7.77247 20.7599 8.08584 20.243 8.46068 19.7545C8.85725 19.2376 9.30167 18.7799 9.79395 18.3812L9.79397 18.3812L9.79404 18.3811C10.2557 18.0072 10.7595 17.6853 11.3054 17.4154C11.8828 17.1299 12.4768 16.9175 13.0876 16.7782L13.0876 16.7782C13.6695 16.6454 14.2666 16.5791 14.8789 16.5791C15.4022 16.581 15.9157 16.6318 16.4196 16.7316L16.4197 16.7316C16.9387 16.8344 17.4475 16.9892 17.946 17.1958C18.4198 17.3923 18.8675 17.6287 19.2889 17.905L19.289 17.905C19.7416 18.2018 20.164 18.5445 20.5562 18.9334L20.7947 19.1698L21.1118 19.0591C21.2081 19.0254 21.3051 18.9938 21.4026 18.9641C22.125 18.7446 22.8807 18.6349 23.6697 18.6349C24.1969 18.6349 24.7143 18.6846 25.222 18.7841L25.222 18.7841L25.2221 18.7841L25.2227 18.7842C25.7493 18.8875 26.2655 19.0442 26.7711 19.2545C27.2491 19.4532 27.7004 19.6924 28.1251 19.972L28.1251 19.972L28.1252 19.972C28.5643 20.2612 28.9749 20.5935 29.3571 20.969C30.1202 21.7188 30.7032 22.5484 31.1062 23.4578L31.1062 23.4578C31.5574 24.4758 31.7829 25.5936 31.7829 26.8115C31.7829 27.4532 31.6956 28.1437 31.5209 28.8829L31.4483 29.1902L31.6814 29.4032C32.1835 29.8621 32.6198 30.3655 32.9902 30.9134L32.9908 30.9142C33.2659 31.3213 33.5047 31.7529 33.7072 32.2091C33.969 32.7991 34.1581 33.4028 34.2743 34.0202L34.2745 34.0212C34.367 34.5135 34.4133 35.0144 34.4133 35.5241C34.4133 36.3172 34.3071 37.0794 34.0945 37.8107L34.0944 37.8112C33.8269 38.7313 33.3911 39.6026 32.7871 40.4249C32.1511 41.2907 31.4094 41.9852 30.5619 42.5084C29.918 42.906 29.2131 43.2047 28.4471 43.4045L28.1228 43.4891L28.0561 43.8176C27.9271 44.4534 27.7301 45.0579 27.4653 45.6309L27.4649 45.6318C27.213 46.1767 26.8997 46.6933 26.5251 47.1814C26.1285 47.6982 25.6841 48.1558 25.1918 48.5544L25.1917 48.5544C24.73 48.9283 24.2263 49.2501 23.6804 49.52C23.1086 49.8027 22.5202 50.0137 21.9154 50.153C21.3276 50.2884 20.7243 50.356 20.1053 50.356L19.9111 50.356ZM8.2747 33.4447L8.27734 33.4463L11.9229 35.5965L11.9222 34.6537L11.9222 24.5462C11.9222 24.4144 11.9502 24.2983 12.0061 24.1977L12.0062 24.1977C12.0654 24.0912 12.1561 24.0022 12.2781 23.9306L19.7893 19.5524L19.1511 19.0652C18.4089 18.4986 17.6199 18.0959 16.7841 17.8568L16.784 17.8568C16.1741 17.6824 15.5392 17.5952 14.8794 17.5952C13.6113 17.5952 12.4731 17.8511 11.4649 18.363C10.8327 18.684 10.2516 19.1055 9.72163 19.6277C9.14254 20.1983 8.68559 20.8282 8.3508 21.5175L8.35079 21.5175C7.892 22.462 7.6626 23.518 7.6626 24.6854L7.6626 32.3547C7.6626 32.6195 7.72205 32.8472 7.84094 33.0379C7.94232 33.2004 8.0869 33.3361 8.2747 33.4447ZM13.0669 24.7329C12.948 24.9237 12.8885 25.1516 12.8885 25.4165L12.8885 29.6659L22.3925 24.0974L22.4016 24.0916C22.4536 24.0582 22.5081 24.0334 22.565 24.0172C22.6192 24.0017 22.6756 23.9939 22.7342 23.9939C22.7928 23.9939 22.8493 24.0017 22.9035 24.0172L22.9035 24.0172C22.9604 24.0334 23.0148 24.0583 23.0668 24.0916L23.0752 24.097L30.6408 28.5604L30.7426 27.7488C30.7687 27.5409 30.7817 27.2515 30.7817 26.8804C30.7817 25.8625 30.6009 24.9202 30.2391 24.0533C29.9096 23.2636 29.4299 22.5364 28.8001 21.8719C28.2247 21.2648 27.5858 20.7822 26.8834 20.4242L26.8833 20.4242C25.8739 19.9097 24.7333 19.6524 23.4617 19.6524C22.2435 19.6524 21.1667 19.9096 20.2313 20.4239C20.1913 20.4459 20.1516 20.4684 20.1121 20.4913L13.5038 24.3238C13.3145 24.4329 13.1688 24.5693 13.0669 24.7329ZM4.56641 37.3673L4.56667 37.3675C4.71376 37.4718 4.86537 37.5696 5.0215 37.6611L5.02355 37.6623L11.6222 41.4898C11.7157 41.55 11.8136 41.5955 11.9159 41.6262L11.9161 41.6262C12.0227 41.6582 12.1342 41.6742 12.2504 41.6742C12.3666 41.6742 12.478 41.6582 12.5846 41.6263C12.6869 41.5956 12.7847 41.5502 12.8781 41.4902L16.5038 39.3965L7.0547 33.8773C6.92987 33.8036 6.83765 33.7121 6.77804 33.6029L6.778 33.6028C6.72353 33.503 6.6963 33.3883 6.6963 33.2587L6.6963 24.5094L5.95389 24.8157C5.3031 25.0842 4.71595 25.431 4.19244 25.8562L4.19232 25.8563C3.64627 26.2999 3.16946 26.8286 2.7619 27.4427C2.36573 28.0395 2.06853 28.6662 1.87029 29.3229L1.87022 29.3231C1.66925 29.9888 1.57001 30.6853 1.57251 31.4125C1.57251 31.7853 1.60064 32.1538 1.6569 32.5179C1.7888 33.3717 2.07535 34.2016 2.51653 35.0075C3.05722 35.9953 3.74052 36.7819 4.56641 37.3673ZM28.2431 33.3733C28.2965 33.4721 28.3232 33.5853 28.3232 33.713L28.3232 41.4962L27.7405 42.6666L29.0636 42.1226C29.6772 41.8702 30.2338 41.546 30.7333 41.1498C31.3118 40.6909 31.8137 40.1355 32.2391 39.4835C32.6149 38.9076 32.9004 38.3038 33.0956 37.6721C33.3066 36.9892 33.4121 36.2737 33.4121 35.5255C33.4121 35.1518 33.3839 34.7825 33.3273 34.4175C33.1952 33.5644 32.9088 32.7352 32.4679 31.9299C31.9286 30.9448 31.2472 30.16 30.4237 29.5752L30.4236 29.5752C30.2737 29.4687 30.119 29.3689 29.9597 29.2757L23.3621 25.448C23.2685 25.3879 23.1705 25.3425 23.0681 25.3119L23.068 25.3119C22.9615 25.28 22.8503 25.2641 22.7342 25.2641C22.6182 25.2641 22.5069 25.28 22.4004 25.3118L22.4004 25.3119L22.3999 25.312C22.2978 25.3426 22.2001 25.3878 22.1068 25.4477L18.482 27.5408L27.9641 33.0963C28.0904 33.1706 28.1834 33.2629 28.2431 33.3733ZM12.8885 30.7151L12.8885 36.2214L17.4923 38.826L22.0961 36.2214L22.0961 30.7151L17.4923 28.1106L12.8885 30.7151ZM22.7065 43.006L15.889 46.9798L15.1953 47.3841L15.8335 47.8713C16.5693 48.433 17.3517 48.8336 18.1806 49.0731C18.6296 49.2027 19.0922 49.2852 19.5685 49.3203L19.5686 49.3414L20.1053 49.3414C21.367 49.3414 22.5017 49.0884 23.5094 48.5824C24.1502 48.2607 24.7397 47.8366 25.2778 47.3102C25.8774 46.7236 26.3473 46.0749 26.6873 45.3641L26.6874 45.364C27.1328 44.433 27.3555 43.3953 27.3555 42.2512L27.3555 34.5834C27.3555 34.3139 27.2945 34.083 27.1726 33.8909C27.0713 33.7311 26.9279 33.5981 26.7424 33.4918L23.0624 31.3477L23.0624 42.3904C23.0624 42.5221 23.0344 42.6383 22.9785 42.7388C22.9192 42.8454 22.8285 42.9344 22.7065 43.006ZM4.27113 39.259C4.22565 39.6367 4.20292 39.9254 4.20292 40.1251C4.20292 41.1933 4.40149 42.173 4.79864 43.0643L4.79879 43.0646C5.14439 43.84 5.6403 44.5485 6.28654 45.1899C6.86805 45.7671 7.5075 46.225 8.20486 46.5636C9.1943 47.0439 10.3003 47.2841 11.523 47.2841C12.7411 47.2841 13.8179 47.027 14.7533 46.5127L14.7545 46.512L14.7554 46.5115C14.7947 46.4899 14.8338 46.4678 14.8726 46.4452L21.4796 42.6135C21.6665 42.5064 21.8109 42.3723 21.9126 42.2114C22.034 42.0193 22.0947 41.7888 22.0947 41.52L22.0947 37.2741L12.5985 42.7979C12.4845 42.8652 12.3701 42.8994 12.2555 42.9005C12.1363 42.9016 12.0167 42.8669 11.8968 42.7964L4.37271 38.4139L4.27514 39.2257L4.27113 39.259Z" fill="rgb(162,154,137)" fill-rule="evenodd" />
				<path id="减去顶层" d="M23.8962 50.1719C22.7089 50.7599 21.4038 51.0657 20.0811 51.0656L20.0811 51.0685C18.9579 51.0648 17.8462 50.8411 16.8076 50.4098C15.769 49.9785 14.8233 49.3478 14.023 48.5528C13.1205 48.867 12.221 49.0066 11.2865 49.0066C9.55589 49.0066 7.91198 48.4864 6.53095 47.5748L16.1912 47.5748L16.1336 47.6085C17.2762 48.4823 18.6255 48.9698 20.0811 48.9698L20.0811 48.9713C21.7208 48.9713 23.184 48.456 24.3228 47.5748L27.0047 47.5748C26.9802 47.6077 26.9555 47.6405 26.9305 47.6731C26.1216 48.729 25.0836 49.5838 23.8962 50.1719ZM27.976 45.9151C28.2372 45.3293 28.4344 44.7143 28.5627 44.0809C30.4827 43.5791 32.0633 42.426 33.1699 40.9361L30.2948 40.9361C29.8557 41.2744 29.3684 41.5587 28.8392 41.7766L28.8407 41.7737L28.8407 40.9361L26.7971 40.9361L26.7971 42.4037C26.7971 43.7131 26.4444 44.9111 25.821 45.9151L27.976 45.9151ZM23.5774 40.9361L23.5774 42.5432C23.5774 43.0323 23.3692 43.3818 22.9544 43.6256L19.0336 45.9151L14.9655 45.9151L21.1888 42.2994C21.4318 42.1599 21.5337 41.9499 21.5337 41.6709L21.5337 40.9361L23.5774 40.9361ZM23.5774 39.2764L21.5337 39.2764L21.5337 38.3518L19.9472 39.2764L14.9568 39.2764L6.75094 34.4747C6.65973 34.4208 6.57852 34.3618 6.50731 34.2974L10.522 34.2974L11.3564 34.7905L11.3564 34.789L11.3564 34.2974L13.3985 34.2974L13.3985 36.0461L17.4669 38.3518L21.5352 36.0461L21.5352 34.2974L23.5774 34.2974L23.5774 39.2764ZM26.7971 39.2764L28.8407 39.2764L28.8407 34.2974L26.682 34.2974C26.7612 34.4136 26.7971 34.5541 26.7971 34.7185L26.7971 39.2764ZM23.9627 32.6377L28.0015 32.6377L19.5265 27.6633L19.5361 27.6578L15.4297 27.6578L13.3985 28.85L13.3985 27.6578L11.3564 27.6578L11.3564 32.6377L13.3985 32.6377L13.3985 31.1557L17.4669 28.85L21.5352 31.1557L21.5352 32.6377L23.5774 32.6377L23.5774 32.4128L23.9627 32.6377ZM8.18193 32.6377C8.17398 32.5893 8.17013 32.5383 8.17013 32.4847L8.17013 27.6578L6.12796 27.6578L6.12796 32.6377L8.18193 32.6377ZM2.17118 32.6377C2.10934 32.2737 2.0771 31.9062 2.0771 31.5404C2.07261 30.2303 2.45571 28.9487 3.17736 27.8595C3.22255 27.7913 3.26893 27.7241 3.31648 27.6578L0.914572 27.6578C0.321992 28.8631 0 30.1973 0 31.5404C0 31.9085 0.0234851 32.2749 0.0697566 32.6377L2.17118 32.6377ZM0.448731 34.2974C0.921295 35.7154 1.75708 37.0198 2.90823 38.0728C2.81358 38.4741 2.73979 38.8753 2.69232 39.2764L8.59684 39.2764L5.26189 37.3385C4.13195 36.6752 3.22145 35.5691 2.66791 34.2974L0.448731 34.2974ZM11.4532 40.9361L7.34869 40.9361L11.598 43.4156C12.0143 43.6608 12.4291 43.6608 12.844 43.4156L17.0989 40.9361L12.9936 40.9361L12.5689 41.1818C12.4661 41.2503 12.3456 41.2868 12.2224 41.2868C12.0993 41.2868 11.9788 41.2503 11.876 41.1818L11.4532 40.9361ZM4.74047 40.9361L2.65543 40.9361C2.79428 42.8591 3.53378 44.5694 4.666 45.9151L7.84568 45.9151C6.10283 44.8549 4.94296 43.0409 4.74047 40.9361ZM1.97046 25.9981L5.04665 25.9981C5.38698 25.775 5.7488 25.5833 6.12796 25.4266L6.12796 25.9981L8.17013 25.9981L8.17013 24.7981C8.17013 23.3698 8.5846 22.0741 9.31129 21.0182L7.08405 21.0182C6.76014 21.6835 6.52046 22.3899 6.37249 23.1209C4.5682 23.5923 3.0637 24.6381 1.97046 25.9981ZM8.13761 19.3584C8.92595 18.3802 9.91543 17.5852 11.0386 17.0288C12.226 16.4405 13.5313 16.1347 14.8541 16.1348C15.977 16.1388 17.0884 16.3627 18.1267 16.794C19.165 17.2253 20.1105 17.8558 20.9107 18.6505C21.8132 18.3347 22.7127 18.1952 23.6472 18.1952C25.1997 18.1952 26.6823 18.614 27.9681 19.3584L18.4743 19.3584C17.4043 18.6323 16.1721 18.2305 14.8527 18.2305C13.3868 18.2305 12.0671 18.642 10.9954 19.3584L8.13761 19.3584ZM16.3601 21.0182L11.9794 23.5762C11.5645 23.82 11.3564 24.1695 11.3564 24.6586L11.3564 25.9981L13.3985 25.9981L13.3985 25.5309C13.3985 25.2519 13.5033 25.0419 13.745 24.9023L20.3576 21.0605C20.3822 21.0462 20.407 21.032 20.4318 21.0182L16.3601 21.0182ZM18.2574 25.9981L22.0883 23.7495C22.2745 23.6299 22.4906 23.5664 22.7113 23.5664C22.932 23.5664 23.1481 23.6299 23.3343 23.7495L27.1388 25.9981L23.0196 25.9981C22.9257 25.9449 22.8195 25.9167 22.7113 25.9167C22.603 25.9167 22.4969 25.9449 22.4029 25.9981L18.2574 25.9981ZM25.8732 27.6578L29.6704 29.8648C30.7211 30.4803 31.5819 31.479 32.1427 32.6377L34.391 32.6377C33.9054 31.3236 33.1038 30.1162 32.0255 29.129C32.1413 28.6381 32.2259 28.1478 32.2692 27.6578L30.2051 27.6578C30.201 27.7055 30.196 27.7535 30.19 27.8014L29.9471 27.6578L25.8732 27.6578ZM30.1513 25.9981L32.2548 25.9981C32.056 24.0551 31.2411 22.3412 30.0314 21.0182L26.6033 21.0182C28.5726 22.0107 29.842 23.9085 30.1513 25.9981ZM34.8257 34.2974L32.7115 34.2974C32.8066 34.7485 32.8566 35.207 32.8566 35.6628C32.8566 36.9661 32.4814 38.2188 31.8084 39.2764L34.1451 39.2764C34.6572 38.1425 34.9337 36.9056 34.9337 35.6613C34.9337 35.2029 34.8973 34.747 34.8257 34.2974Z" fill="rgb(123,117,103)" fill-rule="evenodd" />
			</g>
		</g>
	</g>
</svg>
