<svg viewBox="0 0 35 24" xmlns="http://www.w3.org/2000/svg" xmlns:xlink="http://www.w3.org/1999/xlink" width="35.000000" height="24.000000" fill="none" customFrame="#000000">
	<defs>
		<g id="pixso_custom_effect_5">
			<effect x="-0.500000" y="-0.500000" visibility="visible" fill="rgb(0,0,0)" fill-opacity="0.150000006" effectType="innerShadow" stdDeviation="0.5" radius="0" />
			<effect x="0.500000" y="0.500000" visibility="visible" fill="rgb(255,255,255)" fill-opacity="0.200000003" effectType="innerShadow" stdDeviation="0.5" radius="0" />
			<effect x="0.000000" y="6.000000" visibility="hidden" fill="rgb(0,0,0)" fill-opacity="0.100000001" effectType="dropShadow" stdDeviation="2" radius="0" />
		</g>
		<filter id="filter_5" width="35.000000" height="24.000000" x="0.000000" y="0.000000" filterUnits="userSpaceOnUse" customEffect="url(#pixso_custom_effect_5)" color-interpolation-filters="sRGB">
			<feFlood flood-opacity="0" result="BackgroundImageFix" />
			<feBlend result="shape" in="SourceGraphic" in2="BackgroundImageFix" mode="normal" />
			<feColorMatrix result="hardAlpha" in="SourceAlpha" type="matrix" values="0 0 0 0 0 0 0 0 0 0 0 0 0 0 0 0 0 0 127 0 " />
			<feOffset dx="-0.500000" dy="-0.500000" in="hardAlpha" />
			<feGaussianBlur stdDeviation="0.166666672" />
			<feComposite k2="-1" k3="1" in2="hardAlpha" operator="arithmetic" />
			<feColorMatrix type="matrix" values="0 0 0 0 0 0 0 0 0 0 0 0 0 0 0 0 0 0 0.15 0 " />
			<feBlend result="effect_innerShadow_1" in2="shape" mode="normal" />
			<feColorMatrix result="hardAlpha" in="SourceAlpha" type="matrix" values="0 0 0 0 0 0 0 0 0 0 0 0 0 0 0 0 0 0 127 0 " />
			<feOffset dx="0.500000" dy="0.500000" in="hardAlpha" />
			<feGaussianBlur stdDeviation="0.166666672" />
			<feComposite k2="-1" k3="1" in2="hardAlpha" operator="arithmetic" />
			<feColorMatrix type="matrix" values="0 0 0 0 1 0 0 0 0 1 0 0 0 0 1 0 0 0 0.2 0 " />
			<feBlend result="effect_innerShadow_2" in2="effect_innerShadow_1" mode="normal" />
		</filter>
		<linearGradient id="paint_linear_5" x1="8.95038509" x2="22.691494" y1="2.8651228" y2="26.2730446" gradientUnits="userSpaceOnUse">
			<stop stop-color="rgb(174,178,191)" offset="0" stop-opacity="1" />
			<stop stop-color="rgb(83,86,101)" offset="0.5" stop-opacity="1" />
			<stop stop-color="rgb(207,210,219)" offset="1" stop-opacity="1" />
		</linearGradient>
		<radialGradient id="paint_radial_2" cx="0" cy="0" r="1" gradientUnits="userSpaceOnUse" gradientTransform="matrix(-1.0541,-4.33461,24.379,-5.92854,10.9542,6.00752)">
			<stop stop-color="rgb(255,255,255)" offset="0" stop-opacity="1" />
			<stop stop-color="rgb(255,255,255)" offset="1" stop-opacity="0" />
		</radialGradient>
	</defs>
	<g filter="url(#filter_5)">
		<path id="矢量 192" d="M20.1644 0L25.4188 0L35 24L29.7456 24L20.1644 6.94423e-07L20.1644 0ZM9.57979 0L15.0733 0L24.6546 24L19.2967 24L17.3381 18.9597L7.31646 18.9597L5.35646 23.9985L0 23.9985L9.58125 0.00291276L9.57979 0ZM15.6056 14.5034L12.3273 6.06845L9.04896 14.5049L15.6042 14.5049L15.6056 14.5034Z" fill="url(#paint_linear_5)" fill-opacity="0.300000012" fill-rule="evenodd" />
		<path id="矢量 192" d="M20.1644 0L25.4188 0L35 24L29.7456 24L20.1644 6.94423e-07L20.1644 0ZM9.57979 0L15.0733 0L24.6546 24L19.2967 24L17.3381 18.9597L7.31646 18.9597L5.35646 23.9985L0 23.9985L9.58125 0.00291276L9.57979 0ZM15.6056 14.5034L12.3273 6.06845L9.04896 14.5049L15.6042 14.5049L15.6056 14.5034Z" fill="url(#paint_radial_2)" fill-opacity="0.150000006" fill-rule="evenodd" />
	</g>
</svg>
