<svg viewBox="0 0 48 48" xmlns="http://www.w3.org/2000/svg" width="48" height="48" fill="none"><defs><linearGradient id="like-gradient" x1="11.5" x2="35.5" y1="8" y2="42" gradientUnits="userSpaceOnUse"><stop stop-color="#27F7A0"/><stop offset="1" stop-color="#55CDF5"/></linearGradient></defs><path d="M3 22.6427V40.8752C3 42.6197 4.413 44.0327 6.1575 44.0327H9V19.5152L6.1575 19.4852C5.60324 19.4852 5.05875 19.6311 4.57875 19.9083C4.09875 20.1854 3.70015 20.584 3.42302 21.064C3.1459 21.544 3 22.0885 3 22.6427ZM40.185 16.1717L27.6315 16.2512C28.221 14.1767 28.5195 12.3332 28.5195 10.7102C28.5195 7.02774 25.293 3.42174 22.071 3.88974C19.23 4.30225 18.918 6.75774 18.918 9.83424V12.6122C18.918 16.1777 15.9255 19.2152 12.456 19.5497L12 19.5452V44.0327H36.729C37.4725 44.0328 38.2058 43.8607 38.8716 43.5299C39.5374 43.1991 40.1176 42.7186 40.5667 42.1261C41.0157 41.5336 41.3215 40.8452 41.46 40.1147L44.916 21.8822C45.0922 20.9515 44.9899 19.9895 44.622 19.1166C44.2541 18.2438 43.6369 17.4988 42.8477 16.975C42.0584 16.4511 41.1322 16.1717 40.185 16.1717Z" fill="url(#like-gradient)"/></svg>
